<?xml version="1.0" encoding="UTF-8"?>
<svg width="16px" height="16px" viewBox="0 0 16 16" version="1.1" xmlns="http://www.w3.org/2000/svg" xmlns:xlink="http://www.w3.org/1999/xlink">
    <!-- Generator: Sketch 46.2 (44496) - http://www.bohemiancoding.com/sketch -->
    <title>Shape</title>
    <desc>Created with Sketch.</desc>
    <defs></defs>
    <g id="随处记-copy" stroke="none" stroke-width="1" fill="none" fill-rule="evenodd">
        <g id="导入滴滴-包含其它费用-填写-copy-5" transform="translate(-329.000000, -387.000000)" fill-rule="nonzero" fill="#17ABCB">
            <path d="M342.866583,403 L331.133436,403 C329.95522,403 329,402.045073 329,400.866583 L329,389.133436 C329,387.955257 329.95522,387 331.133436,387 L338.86656,387 C339.013809,387 339.133427,387.119307 339.133427,387.266556 L339.133427,387.799888 C339.133427,387.94743 339.013809,388.066736 338.86656,388.066736 L331.666767,388.066736 C330.783051,388.066736 330.0667,388.783069 330.0667,389.666767 L330.0667,400.333233 C330.0667,401.216949 330.783051,401.9333 331.666767,401.9333 L342.333233,401.9333 C343.216949,401.9333 343.933264,401.216949 343.933264,400.333233 L343.933264,393.13344 C343.933264,392.986191 344.052863,392.866592 344.200112,392.866592 L344.733499,392.866592 C344.880694,392.866592 345,392.986209 345,393.13344 L345,400.866583 C344.999982,402.045073 344.04478,403 342.866583,403 Z M343.806734,390.304391 L341.590109,388.211864 L342.263192,387.536075 C342.78365,387.013844 343.639387,387 344.175132,387.505718 L344.452167,387.767117 C344.987656,388.272853 344.999982,389.106371 344.479579,389.628912 L343.806734,390.304391 Z M333.245457,396.591335 L335.461807,398.683917 L332.20008,399.799901 L333.245457,396.591335 Z M343.268282,390.845257 L335.999967,398.143326 L333.783616,396.050762 L341.05195,388.752749 L343.268282,390.845257 Z" id="Shape"></path>
        </g>
    </g>
</svg>