<?xml version="1.0" encoding="UTF-8"?>
<svg width="17px" height="12px" viewBox="0 0 17 12" version="1.1" xmlns="http://www.w3.org/2000/svg" xmlns:xlink="http://www.w3.org/1999/xlink">
    <!-- Generator: Sketch 46.2 (44496) - http://www.bohemiancoding.com/sketch -->
    <title>Group 8</title>
    <desc>Created with Sketch.</desc>
    <defs></defs>
    <g id="随处记-copy" stroke="none" stroke-width="1" fill="none" fill-rule="evenodd">
        <g id="导入滴滴-包含其它费用-填写-copy-2" transform="translate(-108.000000, -164.000000)" fill-rule="nonzero" fill="#17ABCB">
            <g id="Group-4-Copy" transform="translate(2.000000, 149.000000)">
                <g id="分段选择/3段/窄/未选中-copy" transform="translate(106.000000, 0.000000)">
                    <g id="Group-7" transform="translate(0.000000, 10.000000)">
                        <g id="部门" transform="translate(0.000000, 5.000000)">
                            <g id="Group-8">
                                <path d="M16.1023439,9.48777283 C15.7888462,9.26759245 15.410487,9.14749406 15.0321277,9.04741207 C14.0375834,8.79720709 12.9025056,8.73715789 12.1133562,7.74634617 C12.1133562,7.74634617 11.7133764,7.31599361 12.6214387,6.24511629 C13.5403112,5.18424718 13.615983,3.49286152 13.3889675,2.18178742 C13.1619519,0.880721529 11.8647201,0 10.5134371,0 C9.98373409,0 9.45403112,0.140114789 9,0.380311569 C9.69185694,0.760623138 10.2215599,1.38113149 10.3620934,2.17177922 C10.5891089,3.47284512 10.5134371,5.16423078 9.59456456,6.23510809 C9.15134371,6.75553445 9.01081026,7.12583782 9,7.3660346 L9,7.47612479 C9.01081026,7.64626418 9.08648212,7.72632977 9.08648212,7.72632977 C9.87563144,8.71714149 11.0107092,8.78719889 12.0052536,9.02739567 C12.3944231,9.12747766 12.7619721,9.24757605 13.0754698,9.46775643 C14.2213579,10.2383878 13.940291,11.9998308 13.940291,11.9998308 L16.9671651,11.9998308 C16.9671651,12.0198472 17.2590422,10.2584042 16.1023439,9.48777283 L16.1023439,9.48777283 Z" id="Shape"></path>
                                <path d="M10.164335,9.02248127 C9.24558484,8.77268943 8.19701128,8.71273938 7.46800299,7.7235637 C7.46800299,7.7235637 7.09850564,7.29392173 7.93736449,6.22481266 C8.78620975,5.16569525 8.85611466,3.47710241 8.64639995,2.16819317 C8.42669882,0.869275604 7.22832903,0 5.99001359,0 C4.74171172,0 3.54334194,0.869275604 3.33362722,2.17818485 C3.1139261,3.47710241 3.19381742,5.16569525 4.04266268,6.23480433 C4.89150795,7.29392173 4.51202418,7.73355537 4.51202418,7.73355537 C3.78301589,8.71273938 2.75441516,8.79267277 1.83566499,9.03247294 C1.47615405,9.13238968 1.12662953,9.25228976 0.827037086,9.47210658 C-0.231522892,10.2414654 0.0281238949,12 0.0281238949,12 L11.9718761,12 C11.9718761,12 12.2315229,10.2414654 11.1729629,9.47210658 C10.8633841,9.24229808 10.5238459,9.122398 10.164335,9.02248127 Z" id="Shape"></path>
                            </g>
                        </g>
                    </g>
                </g>
            </g>
        </g>
    </g>
</svg>