<?xml version="1.0" encoding="UTF-8"?>
<svg width="14px" height="14px" viewBox="0 0 14 14" version="1.1" xmlns="http://www.w3.org/2000/svg" xmlns:xlink="http://www.w3.org/1999/xlink">
    <!-- Generator: Sketch 46.2 (44496) - http://www.bohemiancoding.com/sketch -->
    <title>icon-small-warn</title>
    <desc>Created with Sketch.</desc>
    <defs></defs>
    <g id="火车票" stroke="none" stroke-width="1" fill="none" fill-rule="evenodd" opacity="0.5">
        <g id="app" transform="translate(-112.000000, -409.000000)" fill="#8F7E4D">
            <g id="Group-2" transform="translate(112.000000, 409.000000)">
                <path d="M7,14 C3.13400675,14 0,10.8659932 0,7 C0,3.13400675 3.13400675,0 7,0 C10.8659932,0 14,3.13400675 14,7 C14,10.8659932 10.8659932,14 7,14 Z M7.03847917,2 C6.54755937,2 6.14959024,2.39796913 6.14959024,2.88888893 L6.14959024,2.88888893 L6.14959024,8.12529298 C6.14959024,8.61621277 6.54755937,9.0141819 7.03847917,9.0141819 L7.03847917,9.0141819 C7.52939897,9.0141819 7.9273681,8.61621277 7.9273681,8.12529298 L7.9273681,8.12529298 L7.9273681,2.88888893 C7.9273681,2.39796913 7.52939897,2 7.03847917,2 Z M7,9.89574548 C6.44771525,9.89574548 6,10.3434607 6,10.8957455 L6,11 C6,11.5522847 6.44771525,12 7,12 C7.55228475,12 8,11.5522847 8,11 L8,11 L8,10.8957455 C8,10.3434607 7.55228475,9.89574548 7,9.89574548 Z" id="Combined-Shape"></path>
            </g>
        </g>
    </g>
</svg>