<?xml version="1.0" encoding="UTF-8"?>
<svg width="17px" height="15px" viewBox="0 0 17 15" version="1.1" xmlns="http://www.w3.org/2000/svg" xmlns:xlink="http://www.w3.org/1999/xlink">
    <!-- Generator: Sketch 46.2 (44496) - http://www.bohemiancoding.com/sketch -->
    <title>icon-warn</title>
    <desc>Created with Sketch.</desc>
    <defs></defs>
    <g id="火车票" stroke="none" stroke-width="1" fill="none" fill-rule="evenodd">
        <g id="app" transform="translate(-158.000000, -128.000000)" fill="#FC815B">
            <path d="M168.223035,128.982629 L174.723658,139.997111 C175.283478,140.945655 174.965801,142.166923 174.014107,142.72489 C173.706874,142.905017 173.35691,143 173.000464,143 L159.999218,143 C158.89508,143 158,142.107882 158,141.007399 C158,140.652133 158.095298,140.303327 158.276024,139.997111 L164.776647,128.982629 C165.336466,128.034086 166.56179,127.717461 167.513484,128.275427 C167.806477,128.447206 168.050686,128.690607 168.223035,128.982629 L168.223035,128.982629 Z M165.004891,133.578654 L165.463046,137.738207 C165.490813,137.970679 165.589384,138.171321 165.758764,138.34014 C165.928142,138.508958 166.132228,138.604437 166.371023,138.626575 C166.643141,138.654251 166.886099,138.582296 167.099905,138.410711 C167.313712,138.239124 167.434496,138.014958 167.462264,137.738207 L167.920418,133.578654 L167.920418,133.29637 C167.87599,132.897848 167.698284,132.571286 167.387293,132.316674 C167.076303,132.062063 166.72089,131.954131 166.321044,131.992878 C165.921198,132.031622 165.592162,132.205972 165.333929,132.515934 C165.075697,132.825895 164.966018,133.180132 165.004891,133.578654 Z M165.213143,140.577664 C165.213143,140.920835 165.335318,141.214189 165.579668,141.457728 C165.824016,141.701269 166.118344,141.82304 166.462655,141.82304 C166.806966,141.82304 167.101293,141.701269 167.345641,141.457728 C167.589992,141.214189 167.712167,140.920835 167.712167,140.577664 C167.712167,140.234492 167.589992,139.941139 167.345641,139.6976 C167.112399,139.465127 166.818072,139.348893 166.462655,139.348893 C166.107238,139.348893 165.81291,139.465127 165.579668,139.6976 C165.335318,139.941139 165.213143,140.234492 165.213143,140.577664 Z" id="Combined-Shape"></path>
        </g>
    </g>
</svg>