<?xml version="1.0" encoding="UTF-8"?>
<svg width="30px" height="30px" viewBox="0 0 30 30" version="1.1" xmlns="http://www.w3.org/2000/svg" xmlns:xlink="http://www.w3.org/1999/xlink">
    <!-- Generator: Sketch 46.2 (44496) - http://www.bohemiancoding.com/sketch -->
    <title>people-add</title>
    <desc>Created with Sketch.</desc>
    <defs></defs>
    <g id="火车票" stroke="none" stroke-width="1" fill="none" fill-rule="evenodd">
        <g id="app" transform="translate(-120.000000, -154.000000)" fill="#007aff">
            <path d="M123.860225,165.449763 L123.860225,163.014539 C123.860225,162.779818 124.050504,162.589539 124.285225,162.589539 L126.119436,162.589539 C126.354157,162.589539 126.544436,162.779818 126.544436,163.014539 L126.544436,165.449763 L128.979661,165.449763 C129.214382,165.449763 129.404661,165.640042 129.404661,165.874763 L129.404661,167.708975 C129.404661,167.943696 129.214382,168.133975 128.979661,168.133975 L126.544436,168.133975 L126.544436,170.5692 C126.544436,170.803921 126.354157,170.9942 126.119436,170.9942 L124.285225,170.9942 C124.050504,170.9942 123.860225,170.803921 123.860225,170.5692 L123.860225,168.133975 L121.425,168.133975 C121.190279,168.133975 121,167.943696 121,167.708975 L121,165.874763 C121,165.640042 121.190279,165.449763 121.425,165.449763 L121.425,165.449763 L123.860225,165.449763 Z M145.440593,176.999954 C146.104653,176.597805 146.548458,175.868453 146.548458,175.035444 C146.548458,174.790488 146.509241,174.547111 146.432297,174.314553 L146.432297,174.314553 C146.249898,173.763264 146.103901,173.40224 145.994305,173.231481 C145.187169,171.973902 144.057327,170.890428 142.71566,170.073816 C145.633185,170.367779 148.19594,171.798804 149.618449,173.779627 L149.618449,173.779627 C149.866757,174.125394 150.000321,174.540355 150.000321,174.966044 C150.000321,176.089359 149.089694,176.999986 147.966379,176.999986 L147.966379,176.999959 L145.440593,176.999954 Z M140.33072,168.015816 C140.700503,168.133316 141.093318,168.196567 141.500445,168.196567 C143.693248,168.196567 145.470866,166.361703 145.470866,164.098283 C145.470866,161.834864 143.693248,160 141.500445,160 C141.285097,160 141.073753,160.017697 140.867704,160.051758 C141.680296,161.056103 142.168217,162.34236 142.168217,163.744511 C142.168217,165.432964 141.460699,166.953364 140.33072,168.015816 Z M136.028157,168.196567 C133.835354,168.196567 132.057736,166.361703 132.057736,164.098283 C132.057736,161.834864 133.835354,160 136.028157,160 C138.22096,160 139.998578,161.834864 139.998578,164.098283 C139.998578,166.361703 138.22096,168.196567 136.028157,168.196567 Z M144.14616,173.779627 L144.14616,173.779627 C144.394469,174.125394 144.528033,174.540355 144.528033,174.966044 C144.528033,176.089359 143.617406,176.999986 142.494091,176.999986 L142.494091,176.999959 L129.780173,176.999934 C129.362208,176.999934 128.95422,176.872236 128.610841,176.63394 C127.680252,175.988136 127.449388,174.710216 128.095192,173.779627 C129.665116,171.517403 132.675925,170.018026 136.132268,170.018026 C139.501226,170.018026 142.545532,171.550774 144.14616,173.779627 Z" id="Combined-Shape"></path>
        </g>
    </g>
</svg>