<?xml version="1.0" encoding="UTF-8"?>
<svg width="217px" height="125px" viewBox="0 0 217 125" version="1.1" xmlns="http://www.w3.org/2000/svg" xmlns:xlink="http://www.w3.org/1999/xlink">
    <!-- Generator: Sketch 46.2 (44496) - http://www.bohemiancoding.com/sketch -->
    <title>pic-no-ticket-tips</title>
    <desc>Created with Sketch.</desc>
    <defs></defs>
    <g id="火车票" stroke="none" stroke-width="1" fill="none" fill-rule="evenodd">
        <g id="app" transform="translate(-264.000000, -331.000000)">
            <g id="Group-3-Copy" transform="translate(261.000000, 332.000000)">
                <path d="M9.1044518,84.4521138 C7.67587949,82.1058972 6.85300588,79.3503134 6.85300588,76.4025371 C6.85300588,67.8421234 13.7925923,60.9025371 22.3530059,60.9025371 C23.5579604,60.9025371 24.7308014,61.0400316 25.8566954,61.3001873 C25.8542393,61.1679325 25.8530059,61.0353788 25.8530059,60.9025371 C25.8530059,49.3045573 35.2550261,39.9025371 46.8530059,39.9025371 C52.7602898,39.9025371 58.097888,42.3416515 61.9136307,46.2677106 C63.5331099,45.3967079 65.385348,44.9025371 67.3530059,44.9025371 C71.292091,44.9025371 74.7686122,46.8830089 76.841157,49.9025403" id="Combined-Shape" stroke="#CCCCCC" stroke-width="2" stroke-linecap="round" transform="translate(41.847081, 62.177325) scale(-1, 1) rotate(23.000000) translate(-41.847081, -62.177325) "></path>
                <path d="M88.9938195,24.4384492 C89.5461043,24.4384492 89.9938195,23.9907339 89.9938195,23.4384492 C89.9938195,22.8861644 89.5461043,22.4384492 88.9938195,22.4384492 C88.4415348,22.4384492 87.9938195,22.8861644 87.9938195,23.4384492 C87.9938195,23.9907339 88.4415348,24.4384492 88.9938195,24.4384492 Z" id="Oval-2" fill="#DDDDDD" transform="translate(88.993820, 23.438449) scale(-1, 1) rotate(23.000000) translate(-88.993820, -23.438449) "></path>
                <g id="Group-2" transform="translate(131.000000, 29.000000)" stroke="#CCCCCC" stroke-width="2" stroke-linecap="round" stroke-linejoin="round">
                    <path d="M0.616584034,40.8426813 C0.215210425,39.4647508 0,38.0075079 0,36.5 C0,27.9395864 6.93958638,21 15.5,21 C16.7049545,21 17.8777955,21.1374945 19.0036896,21.3976503 C19.0012335,21.2653955 19,21.1328418 19,21 C19,9.40202025 28.4020203,0 40,0 C45.9072839,0 51.2448821,2.43911444 55.0606248,6.36517349 C56.680104,5.49417085 58.5323421,5 60.5,5 C64.4390851,5 67.9156063,6.98047187 69.9881511,10.0000033 C77.4688467,10 84.0270115,13.8990929 87.7500227,19.7728071" id="Combined-Shape"></path>
                </g>
                <g id="Group" transform="translate(22.000000, 23.000000)">
                    <path d="M133.766117,95.4502106 C133.529805,95.9197723 133.047051,96.2164573 132.518864,96.2164573 L86.8277665,96.2164573 C86.2995798,96.2164573 85.8164981,95.9197723 85.5801868,95.4502106 L81.2809976,91.0570179 L137.062881,91.0570179 L133.766117,95.4502106 Z M28.7889961,96.2164573 L27.0891763,91.0570179 L56.1790521,91.0570179 L52.8822879,95.4502106 C52.6456498,95.9197723 52.1628949,96.2164573 51.6347082,96.2164573 L28.7889961,96.2164573 Z M161.164826,91.0570179 L184.942383,91.0570179 L189.270661,93.6051092 C190.019144,94.7210088 189.214117,96.2164573 187.864887,96.2164573 L166.711595,96.2164573 C166.183409,96.2164573 165.700327,95.9197723 165.464016,95.4502106 L161.164826,91.0570179 Z" id="Combined-Shape" fill="#CCCCCC"></path>
                    <rect id="Rectangle" fill="#DEDEDE" x="23" y="99" width="156" height="2" rx="1"></rect>
                    <path d="M58,91 L77.5236265,91 L77.5236265,95.3188789 L58,95.3188789 L58,91 Z M139.353416,90.8975784 L158.877043,90.8975784 L158.877043,95.2164573 L139.353416,95.2164573 L139.353416,90.8975784 Z" id="Combined-Shape" fill="#D6D6D6"></path>
                    <path d="M58.5783191,100.197926 C55.4974985,100.197926 53,97.7148848 53,94.6518983 C53,93.3855327 53.4269071,92.2182993 54.1454442,91.2846922 C54.6375327,90.6453134 56.6591172,91.2823382 58.5783191,91.2846922 C60.6349113,91.2872147 62.5960668,90.7022905 63.1194282,91.4301618 C63.7723973,92.3382866 64.1566381,93.4504801 64.1566381,94.6518983 C64.1566381,97.7148848 61.6591396,100.197926 58.5783191,100.197926 Z M79.5783191,100.197926 C76.4974985,100.197926 74,97.7148848 74,94.6518983 C74,93.3855327 74.4269071,92.2182993 75.1454442,91.2846922 C75.6375327,90.6453134 77.6591172,91.2823382 79.5783191,91.2846922 C81.6349113,91.2872147 83.5960668,90.7022905 84.1194282,91.4301618 C84.7723973,92.3382866 85.1566381,93.4504801 85.1566381,94.6518983 C85.1566381,97.7148848 82.6591396,100.197926 79.5783191,100.197926 Z M138.578319,100.197926 C135.497499,100.197926 133,97.7148848 133,94.6518983 C133,93.3855327 133.426907,92.2182993 134.145444,91.2846922 C134.637533,90.6453134 136.659117,91.2823382 138.578319,91.2846922 C140.634911,91.2872147 142.596067,90.7022905 143.119428,91.4301618 C143.772397,92.3382866 144.156638,93.4504801 144.156638,94.6518983 C144.156638,97.7148848 141.65914,100.197926 138.578319,100.197926 Z M159.578319,100.197926 C156.497499,100.197926 154,97.7148848 154,94.6518983 C154,93.3855327 154.426907,92.2182993 155.145444,91.2846922 C155.637533,90.6453134 157.659117,91.2823382 159.578319,91.2846922 C161.634911,91.2872147 163.596067,90.7022905 164.119428,91.4301618 C164.772397,92.3382866 165.156638,93.4504801 165.156638,94.6518983 C165.156638,97.7148848 162.65914,100.197926 159.578319,100.197926 Z" id="Combined-Shape" fill="#DCDCDC"></path>
                    <path d="M178.398274,72.2585209 C178.391124,72.2585209 178.386899,72.2598209 178.379424,72.2598209 L178.400549,72.2598209 L178.398274,72.2585209 Z" id="Shape" fill="#64BEF0"></path>
                    <path d="M164.803455,68.9618402 L146.783004,57.0190497 C145.408934,56.1081975 143.793977,55.622063 142.142412,55.622063 L31.686194,55.622063 L31.686194,55.622063 C27.0918041,55.622063 23.3673152,59.3465519 23.3673152,63.9409419 L23.3673152,63.9409419 L23.3673152,63.9409419 C23.3673152,68.5353318 27.0918041,72.2598207 31.686194,72.2598207 L163.799377,72.2598207 C165.590833,72.2598207 166.29421,69.949707 164.803455,68.9618402 Z" id="Shape" fill-opacity="0.603374094" fill="#DCDCDC" opacity="0.809556159"></path>
                    <path d="M51.496607,69.4869694 L37.5509728,69.4869694 C36.7809183,69.4869694 36.1563113,68.8663031 36.1563113,68.1003813 L36.1563113,59.7815024 C36.1563113,59.0159056 36.7805914,58.3949143 37.5509728,58.3949143 L51.496607,58.3949143 C52.2666615,58.3949143 52.8912685,59.0155806 52.8912685,59.7815024 L52.8912685,68.1003813 C52.8909416,68.8663031 52.2666615,69.4869694 51.496607,69.4869694 Z M73.8092296,69.4869694 L59.8635953,69.4869694 C59.0935409,69.4869694 58.4689339,68.8663031 58.4689339,68.1003813 L58.4689339,59.7815024 C58.4689339,59.0159056 59.093214,58.3949143 59.8635953,58.3949143 L73.8092296,58.3949143 C74.579284,58.3949143 75.2038911,59.0155806 75.2038911,59.7815024 L75.2038911,68.1003813 C75.2038911,68.8663031 74.5796109,69.4869694 73.8092296,69.4869694 Z M96.122179,69.4869694 L82.1765447,69.4869694 C81.4064903,69.4869694 80.7818833,68.8663031 80.7818833,68.1003813 L80.7818833,59.7815024 C80.7818833,59.0159056 81.4061634,58.3949143 82.1765447,58.3949143 L96.122179,58.3949143 C96.8922335,58.3949143 97.5168405,59.0155806 97.5168405,59.7815024 L97.5168405,68.1003813 C97.5168405,68.8663031 96.8922335,69.4869694 96.122179,69.4869694 Z M118.435128,69.4869694 L104.489494,69.4869694 C103.71944,69.4869694 103.094833,68.8663031 103.094833,68.1003813 L103.094833,59.7815024 C103.094833,59.0159056 103.719113,58.3949143 104.489494,58.3949143 L118.435128,58.3949143 C119.205183,58.3949143 119.82979,59.0155806 119.82979,59.7815024 L119.82979,68.1003813 C119.829463,68.8663031 119.205183,69.4869694 118.435128,69.4869694 Z M140.747751,69.4869694 L126.802117,69.4869694 C126.032062,69.4869694 125.407455,68.8663031 125.407455,68.1003813 L125.407455,59.7815024 C125.407455,59.0159056 126.031735,58.3949143 126.802117,58.3949143 L140.747751,58.3949143 C141.517805,58.3949143 142.142412,59.0155806 142.142412,59.7815024 L142.142412,68.1003813 C142.142412,68.8663031 141.518132,69.4869694 140.747751,69.4869694 Z" id="Combined-Shape" fill="#C4C4C4" opacity="0.447576993"></path>
                    <path d="M176.033354,83 L33.7889961,83 C32.2485603,83 31,81.8805227 31,80.5 L31,80.5 C31,79.1191843 32.2488872,78 33.7889961,78 L176.033354,78 C177.57379,78 178.82235,79.1194773 178.82235,80.5 L178.82235,80.5 C178.82235,81.8805227 177.57379,83 176.033354,83 Z" id="Shape" fill="#CCCCCC"></path>
                    <rect id="Rectangle-2" fill="#CCCCCC" x="16" y="78" width="11" height="5" rx="2.5"></rect>
                    <path d="M183.978988,80.3058483 C183.978988,81.6866639 185.227875,82.8058483 186.767984,82.8058483 L191.690481,82.8058483 L191.690481,80.3058483 C191.690481,79.5297437 191.503851,78.6880116 191.183866,77.8058483 L186.767984,77.8058483 C185.227875,77.8058483 183.978988,78.9253256 183.978988,80.3058483 Z" id="Shape" fill-opacity="0.603374094" fill="#DCDCDC" opacity="0.600000024"></path>
                    <path d="M166.084047,53.982009 C165.897416,53.8867969 165.706864,53.7873603 165.524156,53.6950727 C164.952825,53.4061866 164.378879,53.1234747 163.800358,52.8495367 L153.290226,52.8495367 C151.685074,52.8495367 151.082366,54.9386801 152.443362,55.7842161 L160.536451,60.8129134 C166.710288,64.6493464 175.523751,69.4288023 186.599004,69.4781956 C181.773743,63.9906602 174.355595,58.2493339 166.084047,53.982009 Z" id="Shape" fill-opacity="0.603374094" fill="#DCDCDC"></path>
                    <path d="M0.999945432,90.0000546 L15.0000546,90.0000546 L15.0000546,90.0000546 C15.5523092,90.0000546 16,90.4477454 16,91 L16,91 L16,91 C16,91.5522546 15.5523092,91.9999454 15.0000546,91.9999454 L0.999945432,91.9999454 L0.999945432,91.9999454 C0.447690819,91.9999454 6.76316844e-17,91.5522546 0,91 L0,91 L0,91 C-6.76316844e-17,90.4477454 0.447690819,90.0000546 0.999945432,90.0000546 Z" id="Rectangle-28-Copy-3" fill="#CCCCCC"></path>
                    <path d="M58,1.35525272e-20 L67,1.35525272e-20 L67,2.22044605e-15 C67.5522847,1.13793794e-15 68,0.44771525 68,1 L68,1 L68,1 C68,1.55228475 67.5522847,2 67,2 L58,2 L58,2 C57.4477153,2 57,1.55228475 57,1 L57,1 L57,1 C57,0.44771525 57.4477153,3.23498823e-16 58,2.22044605e-16 Z" id="Rectangle-28-Copy-4" fill="#CCCCCC"></path>
                    <path d="M17,46 L26,46 L26,46 C26.5522847,46 27,46.4477153 27,47 L27,47 L27,47 C27,47.5522847 26.5522847,48 26,48 L17,48 L17,48 C16.4477153,48 16,47.5522847 16,47 L16,47 L16,47 C16,46.4477153 16.4477153,46 17,46 Z" id="Rectangle-28-Copy-2" fill="#CCCCCC"></path>
                    <path d="M50.9999454,2.01526079e-17 L53.0000546,2.01526079e-17 L53.0000546,0 C53.5523092,-1.01447442e-16 54,0.447690819 54,0.999945432 L54,0.999945432 L54,0.999945432 C54,1.55220004 53.5523092,1.99989086 53.0000546,1.99989086 L50.9999454,1.99989086 L50.9999454,1.99989086 C50.4476908,1.99989086 50,1.55220004 50,0.999945432 L50,0.999945432 L50,0.999945432 C50,0.447690819 50.4476908,1.01447442e-16 50.9999454,0 Z" id="Rectangle-28-Copy-5" fill="#CCCCCC"></path>
                    <path d="M34.7558986,47 L141.9,47 C164.166775,47 192,69.0004834 192,80.0000806 L192,85.4998792 C192,88.5375623 189.507721,91 186.433225,91 L22,91" id="Shape" stroke="#CCCCCC" stroke-width="2" stroke-linecap="round"></path>
                </g>
                <path d="M132,16 C132,7.163444 124.836556,0 116,0 C107.371979,0 100.339033,6.82933179 100.011896,15.3772632 C99.2180033,15.1320378 98.3744212,15 97.5,15 C92.8055796,15 89,18.8055796 89,23.5" id="Combined-Shape" stroke="#CCCCCC" stroke-width="2" stroke-linecap="round"></path>
            </g>
        </g>
    </g>
</svg>