<?xml version="1.0" encoding="UTF-8"?>
<svg width="16px" height="16px" viewBox="0 0 16 16" version="1.1" xmlns="http://www.w3.org/2000/svg" xmlns:xlink="http://www.w3.org/1999/xlink">
    <!-- Generator: Sketch 46.2 (44496) - http://www.bohemiancoding.com/sketch -->
    <title>station-start</title>
    <desc>Created with Sketch.</desc>
    <defs>
        <circle id="path-1" cx="8" cy="8" r="8"></circle>
    </defs>
    <g id="火车票" stroke="none" stroke-width="1" fill="none" fill-rule="evenodd">
        <g id="app" transform="translate(-439.000000, -130.000000)">
            <g id="Group-2" transform="translate(439.000000, 130.000000)">
                <g id="Oval-7">
                    <use fill="#9A9A9A" fill-rule="evenodd" xlink:href="#path-1"></use>
                    <circle stroke="#979797" stroke-width="1.14285714" cx="8" cy="8" r="7.42857143"></circle>
                </g>
                <path d="M4.36,2.5 L5.17142857,2.56857143 C5.06857143,3.34571429 4.96571429,4.06571429 4.86285714,4.72857143 L6.55428571,4.72857143 L6.55428571,5.20857143 C6.46285714,7.06 6.14285714,8.64857143 5.59428571,9.99714286 C6.13142857,10.5571429 6.57714286,11.06 6.92,11.5171429 L6.37142857,12.1571429 C6.05142857,11.7342857 5.67428571,11.2771429 5.22857143,10.7971429 C4.77142857,11.6657143 4.21142857,12.42 3.52571429,13.06 L3.01142857,12.4085714 C3.68571429,11.7914286 4.23428571,11.06 4.66857143,10.1914286 C4.21142857,9.72285714 3.72,9.24285714 3.19428571,8.74 C3.46857143,7.74571429 3.70857143,6.67142857 3.91428571,5.51714286 L3,5.51714286 L3,4.72857143 L4.05142857,4.72857143 C4.16571429,4.00857143 4.26857143,3.26571429 4.36,2.5 Z M5.01142857,9.40285714 C5.44571429,8.26 5.69714286,6.96857143 5.77714286,5.51714286 L4.73714286,5.51714286 C4.52,6.71714286 4.30285714,7.71142857 4.07428571,8.5 C4.40571429,8.80857143 4.71428571,9.10571429 5.01142857,9.40285714 Z M12.5885714,8.16857143 L12.5885714,13.0371429 L11.8,13.0371429 L11.8,12.3514286 L8.30285714,12.3514286 L8.30285714,13.0371429 L7.51428571,13.0371429 L7.51428571,8.16857143 L12.5885714,8.16857143 Z M8.30285714,11.5742857 L11.8,11.5742857 L11.8,8.92285714 L8.30285714,8.92285714 L8.30285714,11.5742857 Z M7.06857143,7.14 C8.93142857,7.02571429 10.6228571,6.85428571 12.1428571,6.63714286 C12.28,6.92285714 12.4057143,7.22 12.5428571,7.52857143 L13.3085714,7.16285714 C12.76,5.96285714 12.1657143,4.86571429 11.5371429,3.86 L10.8285714,4.20285714 C11.16,4.72857143 11.48,5.31142857 11.8,5.94 C10.6457143,6.12285714 9.42285714,6.26 8.14285714,6.34 C8.82857143,5.46 9.50285714,4.28285714 10.1885714,2.79714286 L9.41142857,2.53428571 C8.42857143,4.77428571 7.60571429,6.05428571 6.94285714,6.39714286 L7.06857143,7.14 Z" id="始" fill="#FFFFFF"></path>
            </g>
        </g>
    </g>
</svg>