<?xml version="1.0" encoding="UTF-8"?>
<svg width="16px" height="16px" viewBox="0 0 16 16" version="1.1" xmlns="http://www.w3.org/2000/svg" xmlns:xlink="http://www.w3.org/1999/xlink">
    <!-- Generator: Sketch 46.2 (44496) - http://www.bohemiancoding.com/sketch -->
    <title>station-end</title>
    <desc>Created with Sketch.</desc>
    <defs>
        <circle id="path-1" cx="8" cy="8" r="8"></circle>
    </defs>
    <g id="火车票" stroke="none" stroke-width="1" fill="none" fill-rule="evenodd">
        <g id="app" transform="translate(-439.000000, -155.000000)">
            <g id="Group-3" transform="translate(439.000000, 155.000000)">
                <g id="Oval-7">
                    <use fill="#9A9A9A" fill-rule="evenodd" xlink:href="#path-1"></use>
                    <circle stroke="#979797" stroke-width="1.14285714" cx="8" cy="8" r="7.42857143"></circle>
                </g>
                <path d="M6.76,10.7514286 C5.69714286,11.14 4.46285714,11.46 3.05714286,11.6885714 L3.17142857,12.5457143 C4.50857143,12.2942857 5.70857143,11.9742857 6.76,11.5857143 L6.76,10.7514286 Z M4.93142857,2.5 L5.69714286,2.79714286 C5.13714286,4.23714286 4.56571429,5.38 3.97142857,6.24857143 C4.46285714,6.19142857 4.95428571,6.11142857 5.44571429,6.02 C5.67428571,5.55142857 5.91428571,5.04857143 6.16571429,4.52285714 L6.88571429,4.78571429 C5.86857143,6.86571429 5.03428571,8.34 4.37142857,9.20857143 C5.01142857,9.04857143 5.66285714,8.84285714 6.30285714,8.59142857 L6.30285714,9.33428571 C5.29714286,9.71142857 4.32571429,9.97428571 3.41142857,10.1114286 L3.19428571,9.35714286 C3.33142857,9.3 3.45714286,9.22 3.56,9.12857143 C3.98285714,8.66 4.48571429,7.87142857 5.08,6.75142857 C4.45142857,6.86571429 3.82285714,6.98 3.19428571,7.07142857 L3,6.31714286 C3.12571429,6.27142857 3.24,6.16857143 3.33142857,6.02 C3.94857143,4.99142857 4.47428571,3.82571429 4.93142857,2.5 Z M9.10285714,8.64857143 C10.2457143,9.00285714 11.2971429,9.43714286 12.2342857,9.94 L11.8228571,10.5685714 C10.7942857,10.02 9.75428571,9.59714286 8.68,9.27714286 L9.10285714,8.64857143 Z M7.72,10.5914286 L7.26285714,11.2771429 C8.97714286,11.7 10.6571429,12.2828571 12.2914286,13.0142857 L12.7257143,12.3285714 C11.2171429,11.6428571 9.54857143,11.0714286 7.72,10.5914286 Z M8.80571429,2.5 L9.64,2.60285714 C9.53714286,2.95714286 9.42285714,3.3 9.29714286,3.62 L12.5771429,3.62 L12.5771429,4.29428571 C12.0857143,5.23142857 11.5028571,6.04285714 10.8171429,6.74 C11.6285714,7.31142857 12.5314286,7.81428571 13.5371429,8.22571429 L13.1142857,8.96857143 C12.0628571,8.51142857 11.1028571,7.94 10.2457143,7.27714286 C9.29714286,8.06571429 8.2,8.67142857 6.94285714,9.10571429 L6.54285714,8.37428571 C7.70857143,8.00857143 8.72571429,7.47142857 9.61714286,6.76285714 C9.12571429,6.35142857 8.66857143,5.89428571 8.25714286,5.41428571 C7.97142857,5.78 7.65142857,6.12285714 7.30857143,6.44285714 L6.79428571,5.76857143 C7.77714286,4.87714286 8.45142857,3.78 8.80571429,2.5 Z M10.1885714,6.26 C10.7371429,5.72285714 11.2171429,5.10571429 11.64,4.42 L8.92,4.42 C8.84,4.55714286 8.76,4.68285714 8.69142857,4.80857143 C9.13714286,5.33428571 9.64,5.81428571 10.1885714,6.26 Z" id="终" fill="#FFFFFF"></path>
            </g>
        </g>
    </g>
</svg>