<?xml version="1.0" encoding="UTF-8"?>
<svg width="17px" height="17px" viewBox="0 0 17 17" version="1.1" xmlns="http://www.w3.org/2000/svg" xmlns:xlink="http://www.w3.org/1999/xlink">
    <!-- Generator: Sketch 49 (51002) - http://www.bohemiancoding.com/sketch -->
    <title>seat-sel</title>
    <desc>Created with Sketch.</desc>
    <defs></defs>
    <g id="火车票" stroke="none" stroke-width="1" fill="none" fill-rule="evenodd">
        <g id="app" transform="translate(-124.000000, -1061.000000)">
            <g id="seat-sel" transform="translate(124.000000, 1061.000000)">
                <polygon id="Rectangle-22" fill="#007aff" points="0 0 17 0 17 17"></polygon>
                <path d="M8.48738025,4.81181379 L8.48738025,4.81181379 C8.21974845,5.06460664 8.2077191,5.48649418 8.46051195,5.75412598 C8.46138786,5.75505331 8.46226644,5.75597813 8.46314766,5.75690041 L10.1247503,7.49593022 C10.5062841,7.89524266 11.139285,7.90965512 11.5385974,7.52812135 C11.5738832,7.49440663 11.6066535,7.45815406 11.6366457,7.41965425 L15.5877543,2.34777156 C15.8141676,2.0571337 15.7621033,1.6379809 15.4714655,1.41156758 C15.4704891,1.41080699 15.4695107,1.41004912 15.4685301,1.40929398 L15.4685301,1.40929398 C15.1745301,1.18287959 14.7528617,1.23644834 14.5248145,1.5291836 L10.8209561,6.28368095 L9.43790817,4.8361859 C9.1816898,4.5680283 8.75700435,4.55713911 8.48738025,4.81181379 Z" id="Path-13-Copy-3" fill="#FFFFFF" fill-rule="nonzero"></path>
            </g>
        </g>
    </g>
</svg>