<?xml version="1.0" encoding="UTF-8"?>
<svg width="16px" height="16px" viewBox="0 0 16 16" version="1.1" xmlns="http://www.w3.org/2000/svg" xmlns:xlink="http://www.w3.org/1999/xlink">
    <!-- Generator: Sketch 49 (51002) - http://www.bohemiancoding.com/sketch -->
    <title>感叹号 (2)</title>
    <desc>Created with Sketch.</desc>
    <defs></defs>
    <g id="随处记-copy" stroke="none" stroke-width="1" fill="none" fill-rule="evenodd">
        <g id="12" transform="translate(-345.000000, -79.000000)" fill="#17ABCB" fill-rule="nonzero">
            <g id="感叹号-(2)" transform="translate(345.000000, 79.000000)">
                <path d="M8,0 C3.60000088,0 0,3.60000088 0,8 C0,12.3999991 3.60000088,16 8,16 C12.3999991,16 16,12.3999991 16,8 C16,3.60000088 12.3999991,0 8,0 M8,14.9999978 C4.09999319,14.9999978 1.0000022,11.9000068 1.0000022,8 C1.0000022,4.09999319 4.09999319,1.0000022 8,1.0000022 C11.9000068,1.0000022 14.9999978,4.09999319 14.9999978,8 C14.9999978,11.9000068 11.9000068,14.9999978 8,14.9999978" id="Shape"></path>
                <path d="M7.99999121,10 C7.69998857,10 7.50000439,10.1000026 7.30000264,10.2999903 C7.10000088,10.4999956 7,10.7000009 7,11.0000088 C7,11.2999991 7.10000088,11.5000044 7.30000264,11.7000097 C7.50000439,11.9000149 7.69998857,12 7.99999121,12 C8.29999385,12 8.49997803,11.9000149 8.69997979,11.7000097 C8.89998154,11.5000044 9,11.2999991 9,11.0000088 C9,10.7000009 8.89999912,10.4999956 8.69999736,10.2999903 C8.49999561,10.1000026 8.30001143,10 8.00000879,10 L7.99999121,10 Z M7,3 L7.33333984,9 L8.55554688,9 L9,3 L7,3 Z" id="Shape"></path>
            </g>
        </g>
    </g>
</svg>