<?xml version="1.0" encoding="UTF-8"?>
<svg width="16px" height="16px" viewBox="0 0 16 16" version="1.1" xmlns="http://www.w3.org/2000/svg" xmlns:xlink="http://www.w3.org/1999/xlink">
    <!-- Generator: Sketch 48.1 (47250) - http://www.bohemiancoding.com/sketch -->
    <title>delete-number</title>
    <desc>Created with Sketch.</desc>
    <defs></defs>
    <g id="输入身份证号-完成" stroke="none" stroke-width="1" fill="none" fill-rule="evenodd" transform="translate(-330.000000, -249.000000)" opacity="0.300000012">
        <path d="M338,249 C342.418278,249 346,252.581722 346,257 C346,261.418278 342.418278,265 338,265 C333.581722,265 330,261.418278 330,257 C330,252.581722 333.581722,249 338,249 Z M340.579665,260.75687 C340.903794,261.081043 341.43018,261.081043 341.75431,260.75687 C342.078439,260.432697 342.078439,259.908833 341.75431,259.58466 L339.174645,257.001297 L341.756903,254.420526 C342.081032,254.096353 342.081032,253.569896 341.756903,253.245723 C341.432773,252.92155 340.906387,252.92155 340.582258,253.245723 L338,255.826493 L335.420335,253.24313 C335.096206,252.918957 334.56982,252.918957 334.24569,253.24313 C333.921561,253.567303 333.921561,254.09376 334.24569,254.417933 L336.825355,257.001297 L334.243097,259.582067 C333.918968,259.90624 333.918968,260.432697 334.243097,260.75687 C334.567227,261.081043 335.093613,261.081043 335.417742,260.75687 L338,258.1761 L340.579665,260.75687 Z" id="delete-number" fill="#4C4C4C"></path>
    </g>
</svg>