<?xml version="1.0" encoding="UTF-8"?>
<svg width="20px" height="20px" viewBox="0 0 20 20" version="1.1" xmlns="http://www.w3.org/2000/svg" xmlns:xlink="http://www.w3.org/1999/xlink">
    <!-- Generator: Sketch 46.2 (44496) - http://www.bohemiancoding.com/sketch -->
    <title>checkbox-checked</title>
    <desc>Created with Sketch.</desc>
    <defs></defs>
    <g id="火车票" stroke="none" stroke-width="1" fill="none" fill-rule="evenodd">
        <g id="app" transform="translate(-82.000000, -161.000000)">
            <g id="Group" transform="translate(82.000000, 161.000000)">
                <rect id="Rectangle-4" fill="#007aff" x="0" y="0" width="20" height="20" rx="4"></rect>
                <path d="M5.45996094,10.7128906 L5.45996094,10.7128906 L5.45996094,10.7128906 C5.05955481,11.0932764 5.04332514,11.7262334 5.42371097,12.1266395 L8.28354549,15.1369916 L8.28354549,15.1369916 C8.66393131,15.5373978 9.29688825,15.5536274 9.69729438,15.1732416 C9.7340455,15.1383281 9.76808871,15.1006706 9.79912963,15.0605949 L16.0229586,7.02525185 L16.0229586,7.02525185 C16.3611516,6.58862398 16.2813544,5.96050751 15.8447266,5.62231445 L15.8447266,5.62231445 L15.8447266,5.62231445 C15.4080987,5.2841214 14.7799822,5.36391859 14.4417892,5.80054646 L8.93125704,12.9149798 L6.87370983,10.7491406 L6.87370983,10.7491406 C6.49332401,10.3487345 5.86036707,10.3325048 5.45996094,10.7128906 Z" id="Path-13" fill="#FFFFFF" fill-rule="nonzero"></path>
            </g>
        </g>
    </g>
</svg>