<?xml version="1.0" encoding="UTF-8"?>
<svg width="19px" height="19px" viewBox="0 0 19 19" version="1.1" xmlns="http://www.w3.org/2000/svg" xmlns:xlink="http://www.w3.org/1999/xlink">
    <!-- Generator: Sketch 46.2 (44496) - http://www.bohemiancoding.com/sketch -->
    <title>icon-back</title>
    <desc>Created with Sketch.</desc>
    <defs>
        <circle id="path-1" cx="9.5" cy="9.5" r="9.5"></circle>
    </defs>
    <g id="火车票" stroke="none" stroke-width="1" fill="none" fill-rule="evenodd">
        <g id="app" transform="translate(-134.000000, -342.000000)">
            <g id="icon/back" transform="translate(134.000000, 342.000000)">
                <g id="Oval-10">
                    <use fill="#007aff" fill-rule="evenodd" xlink:href="#path-1"></use>
                    <circle stroke="#007aff" stroke-width="1" cx="9.5" cy="9.5" r="9"></circle>
                </g>
                <path d="M12.8476562,10.5390625 L14.8867188,13.0175781 L12.6132812,13.0175781 L11.7519531,11.9511719 L10.9023438,13.0585938 L8.68164062,13.0585938 L10.6386719,10.5566406 L8.875,8.37695312 L11.0605469,8.37695312 L11.7167969,9.17382812 L12.7773438,7.8203125 L9.00976562,7.8203125 L8.9921875,6.58984375 L14.6054688,6.58984375 L14.6054688,8.25390625 L12.8476562,10.5390625 Z M6.87695312,13.0175781 L6.87695312,4.6328125 L14.6992188,4.01757812 L14.2070313,5.50585938 L8.63476562,5.93945312 L8.64648438,12.5488281 L7.14648438,13.1640625 L7.85546875,13.5625 L14.8515625,13.5683594 L14.2421875,14.8222656 L6.94726562,14.8222656 L6.10351562,14.2832031 L4.421875,14.9453125 L4.42773438,8.27734375 L4,8.27734375 L4,6.9296875 L6.16210938,6.9296875 L6.16210938,12.6191406 L6.87695312,13.0175781 Z M5.15429688,4 C5.33789154,4 5.51464759,4.04492143 5.68457031,4.13476562 C5.85449304,4.22460982 5.98925731,4.357421 6.08886719,4.53320312 C6.18847706,4.70898525 6.2392578,4.89355372 6.24121094,5.08691406 C6.24316407,5.2802744 6.19531299,5.46093666 6.09765625,5.62890625 C5.99999951,5.80078211 5.86621179,5.93554639 5.69628906,6.03320312 C5.52636634,6.13085986 5.34570408,6.17773439 5.15429688,6.17382812 C4.9589834,6.17382812 4.77636804,6.12500049 4.60644531,6.02734375 C4.43652259,5.92968701 4.30371142,5.79785239 4.20800781,5.63183594 C4.11230421,5.46581948 4.06640623,5.28320412 4.0703125,5.08398438 C4.0703125,4.8886709 4.11816358,4.70507898 4.21386719,4.53320312 C4.30957079,4.36132727 4.44335852,4.2304692 4.61523438,4.140625 C4.78711023,4.0507808 4.96679594,4.00390627 5.15429688,4 Z" id="返" fill="#FFFFFF" fill-rule="evenodd"></path>
            </g>
        </g>
    </g>
</svg>