<?xml version="1.0" encoding="UTF-8"?>
<svg width="12px" height="7px" viewBox="0 0 12 7" version="1.1" xmlns="http://www.w3.org/2000/svg" xmlns:xlink="http://www.w3.org/1999/xlink">
    <!-- Generator: Sketch 46.2 (44496) - http://www.bohemiancoding.com/sketch -->
    <title>icon-down</title>
    <desc>Created with Sketch.</desc>
    <defs></defs>
    <g id="火车票" stroke="none" stroke-width="1" fill="none" fill-rule="evenodd">
        <g id="app" transform="translate(-131.000000, -91.000000)" fill="#BBBBBB">
            <g id="next" transform="translate(137.000000, 94.500000) scale(1, -1) rotate(-90.000000) translate(-137.000000, -94.500000) translate(133.500000, 88.500000)">
                <path d="M5.9392213,11.9849971 L0.0150817008,6.17105491 C-0.00480712796,6.06476486 -0.00524614125,5.93622276 0.0150817008,5.82905831 L5.9392213,0.0151161481 C5.9849446,-0.0044277162 6.11377466,-0.00564059438 6.2877001,0.0151161481 L6.9846577,0.699109344 C7.00451107,0.877729214 7.00545781,1.00656315 6.9846577,1.04110594 L2.1059545,5.82905831 C2.03597285,5.93494932 2.03458206,6.06422364 2.1059545,6.17105491 L6.9846577,10.9590073 C7.00406702,10.9926098 7.00613506,11.1212125 6.9846577,11.3010039 L6.2877001,11.9849971 C6.11539866,12.0045823 5.98538362,12.0054153 5.9392213,11.9849971 Z" id="Rectangle-" transform="translate(3.500000, 6.000000) scale(-1, 1) translate(-3.500000, -6.000000) "></path>
            </g>
        </g>
    </g>
</svg>