<?xml version="1.0" encoding="UTF-8"?>
<svg width="75px" height="20px" viewBox="0 0 75 20" version="1.1" xmlns="http://www.w3.org/2000/svg" xmlns:xlink="http://www.w3.org/1999/xlink">
    <!-- Generator: Sketch 46.2 (44496) - http://www.bohemiancoding.com/sketch -->
    <title>icon-train</title>
    <desc>Created with Sketch.</desc>
    <defs></defs>
    <g id="火车票" stroke="none" stroke-width="1" fill="none" fill-rule="evenodd">
        <g id="app" transform="translate(-432.000000, -70.000000)" stroke="#FFFFFF">
            <g id="Group-2" transform="translate(432.000000, 70.000000)">
                <path d="M30.577857,0.800000012 L2.66700093,19.2 L72.6897024,19.2 C73.5091163,19.2 74.2,18.4523702 74.2,17.4999451 L74.2,15.0000366 C74.2,9.95783731 62.3522648,0.800000012 54.2077275,0.800000012 L30.577857,0.800000012 Z" id="Shape" stroke-width="1.60000002"></path>
                <path d="M63.4378341,4 C62.2848578,4 58.6111343,4.54884522 59.0336567,6.31635832 C59.456179,8.08387142 66.8310547,11.005127 68.8572998,11.0249023 C70.2081299,11.0380859 70.9331055,10.8687337 71.0322266,10.5168457 C69.8789062,8.76845489 68.8806211,7.55363683 68.0373713,6.87239153 C65.9397832,5.17779037 63.9173376,4 63.4378341,4 Z" id="Path-6" stroke-width="1.4"></path>
            </g>
        </g>
    </g>
</svg>