<?xml version="1.0" encoding="UTF-8"?>
<svg width="16px" height="16px" viewBox="0 0 16 16" version="1.1" xmlns="http://www.w3.org/2000/svg" xmlns:xlink="http://www.w3.org/1999/xlink">
    <!-- Generator: Sketch 46.2 (44496) - http://www.bohemiancoding.com/sketch -->
    <title>list-by-price</title>
    <desc>Created with Sketch.</desc>
    <defs></defs>
    <g id="火车票" stroke="none" stroke-width="1" fill="none" fill-rule="evenodd">
        <g id="app" transform="translate(-253.000000, -127.000000)">
            <g id="Group" transform="translate(253.000000, 127.000000)">
                <path d="M8.57207031,7.50908391 L11.6,7.50908391 C11.8209139,7.50908391 12,7.32999781 12,7.10908391 L12,7.10908391 L12,7.10908391 C12,6.88817001 11.8209139,6.70908391 11.6,6.70908391 L9.04802282,6.70908391 L11.441101,3.85712436 L11.441101,3.85712436 C11.5831018,3.68789449 11.5610282,3.43559225 11.3917983,3.29359154 L11.3917983,3.29359154 L11.3917983,3.29359154 C11.2225684,3.15159082 10.9702662,3.1736644 10.8282655,3.34289427 L8.25711504,6.40707204 L8.25711504,6.40707204 C8.25438546,6.41032504 8.2517165,6.41360873 8.24910804,6.41692174 C8.24649958,6.41360872 8.24383062,6.41032503 8.24110104,6.40707204 L8.24110104,6.40707204 L5.6699506,3.34289427 C5.52794988,3.1736644 5.27564764,3.15159082 5.10641778,3.29359154 L5.10641778,3.29359154 L5.10641778,3.29359154 C4.93718791,3.43559225 4.91511433,3.68789449 5.05711504,3.85712436 L5.05711504,3.85712436 L7.45019326,6.70908391 L4.4,6.70908391 C4.1790861,6.70908391 4,6.88817001 4,7.10908391 C4,7.32999781 4.1790861,7.50908391 4.4,7.50908391 L7.77207031,7.50908391 L7.77207031,9.43651368 L5.1999814,9.43651368 C4.97907777,9.43651368 4.8,9.61559146 4.8,9.83649509 C4.8,10.0573987 4.97907777,10.2364765 5.1999814,10.2364765 L7.77207031,10.2364765 L7.77207031,13.0364765 L7.77207031,13.0364765 C7.77207031,13.2573904 7.95115641,13.4364765 8.17207031,13.4364765 C8.39298421,13.4364765 8.57207031,13.2573904 8.57207031,13.0364765 L8.57207031,10.2364765 L10.7999733,10.2364765 C11.0208769,10.2364765 11.1999547,10.0573987 11.1999547,9.83649509 C11.1999547,9.61559146 11.0208769,9.43651368 10.7999733,9.43651368 L8.57207031,9.43651368 L8.57207031,7.50908391 Z" id="Combined-Shape" fill="#FFFFFF"></path>
                <circle id="Oval-2" stroke="#FFFFFF" stroke-width="0.809999957" cx="8" cy="8" r="7.59500002"></circle>
            </g>
        </g>
    </g>
</svg>