<?xml version="1.0" encoding="UTF-8"?>
<svg width="16px" height="16px" viewBox="0 0 16 16" version="1.1" xmlns="http://www.w3.org/2000/svg" xmlns:xlink="http://www.w3.org/1999/xlink">
    <!-- Generator: Sketch 46.2 (44496) - http://www.bohemiancoding.com/sketch -->
    <title>list-by-specification</title>
    <desc>Created with Sketch.</desc>
    <defs></defs>
    <g id="火车票" stroke="none" stroke-width="1" fill="none" fill-rule="evenodd">
        <g id="app" transform="translate(-278.000000, -127.000000)" fill="#FFFFFF">
            <path d="M290,141 C291.656854,141 293,139.656854 293,138 L293,130 C293,128.343146 291.656854,127 290,127 L282,127 C280.343146,127 279,128.343146 279,130 L279,138 C279,139.656854 280.343146,141 282,141 L282,140.130828 C280.80742,139.88515 279.910742,138.829266 279.910742,137.563951 L279.910742,130.575112 C279.910742,129.127676 281.084121,127.954297 282.531557,127.954297 L289.520396,127.954297 C290.967832,127.954297 292.141211,129.127676 292.141211,130.575112 L292.141211,137.563951 C292.141211,138.847574 291.218396,139.915663 290,140.140982 L290,141 Z" id="Combined-Shape"></path>
            <path d="" id="Rectangle-12-Copy" fill-rule="nonzero" opacity="0.400000006"></path>
            <path d="M289.489106,143 L290.476632,143 L288.837043,140.032727 C288.484966,139.395551 287.814482,139 287.086505,139 L284.97668,139 C284.248703,139 283.578219,139.395551 283.226142,140.032727 L281.586553,143 L282.69588,143 L283.848321,140.774545 C284.125544,140.296663 284.254521,139.891907 285.226685,139.891907 L286.887949,139.891907 C287.764989,139.891907 287.98909,140.296663 288.266313,140.774545 L289.489106,143 Z" id="Combined-Shape"></path>
            <path d="M283,131 C282.447715,131 282,131.447715 282,132 C282,132.552285 282.447715,133 283,133 L289,133 C289.552285,133 290,132.552285 290,132 C290,131.447715 289.552285,131 289,131 L283,131 Z M283,130 L289,130 C290.104569,130 291,130.895431 291,132 C291,133.104569 290.104569,134 289,134 L283,134 C281.895431,134 281,133.104569 281,132 C281,130.895431 281.895431,130 283,130 Z" id="Rectangle-14" fill-rule="nonzero"></path>
            <path d="M283,138.5 C282.171573,138.5 281.5,137.828427 281.5,137 C281.5,136.171573 282.171573,135.5 283,135.5 C283.828427,135.5 284.5,136.171573 284.5,137 C284.5,137.828427 283.828427,138.5 283,138.5 Z M283,137.5 C283.276142,137.5 283.5,137.276142 283.5,137 C283.5,136.723858 283.276142,136.5 283,136.5 C282.723858,136.5 282.5,136.723858 282.5,137 C282.5,137.276142 282.723858,137.5 283,137.5 Z" id="Oval-11" fill-rule="nonzero"></path>
            <path d="M289,138.5 C288.171573,138.5 287.5,137.828427 287.5,137 C287.5,136.171573 288.171573,135.5 289,135.5 C289.828427,135.5 290.5,136.171573 290.5,137 C290.5,137.828427 289.828427,138.5 289,138.5 Z M289,137.5 C289.276142,137.5 289.5,137.276142 289.5,137 C289.5,136.723858 289.276142,136.5 289,136.5 C288.723858,136.5 288.5,136.723858 288.5,137 C288.5,137.276142 288.723858,137.5 289,137.5 Z" id="Oval-11-Copy" fill-rule="nonzero"></path>
        </g>
    </g>
</svg>