<?xml version="1.0" encoding="UTF-8"?>
<svg width="94px" height="18px" viewBox="0 0 94 18" version="1.1" xmlns="http://www.w3.org/2000/svg" xmlns:xlink="http://www.w3.org/1999/xlink">
    <!-- Generator: Sketch 46.2 (44496) - http://www.bohemiancoding.com/sketch -->
    <title>logo</title>
    <desc>Created with Sketch.</desc>
    <defs></defs>
    <g id="火车票" stroke="none" stroke-width="1" fill="none" fill-rule="evenodd">
        <g id="app" transform="translate(-202.000000, -44.000000)" fill="#C1C1C1">
            <g id="Group-10" transform="translate(202.000000, 44.000000)">
                <path d="M86.7444708,8.87402184 L85.3486099,8.87402184 L85.3486099,17.1748467 C85.3486099,17.4913293 85.0842911,17.7468676 84.7620843,17.7468676 C84.4387854,17.7468676 84.176651,17.4913293 84.176651,17.1748467 L84.176651,8.3258569 C84.1762882,8.31759263 84.1761049,8.30928304 84.1761049,8.30093177 C84.1761049,8.29252407 84.1762882,8.28416029 84.176651,8.27584397 L84.176651,2.67438472 C84.176651,0.847125499 85.5321039,0.847125499 86.0432658,0.847125499 L91.3875291,0.847125499 C93.2530516,0.847125499 93.2530516,2.30016545 93.2530516,2.99835168 L93.2530516,4.99989016 C93.2530516,5.35914065 93.1023244,6.53205076 91.1668994,6.53205076 L89.5919091,6.53205076 C89.2686101,6.53205076 89.0097524,6.27437406 89.0097524,5.95789148 C89.0097524,5.6403397 89.2686101,5.38266301 89.5919091,5.38266301 L91.1668994,5.38266301 C91.5830376,5.38266301 92.082185,5.31744194 92.082185,4.99989016 L92.082185,2.99835168 C92.082185,2.03179678 91.9489334,1.99437485 91.3875291,1.99437485 L86.0432658,1.99437485 C85.4949682,1.99437485 85.3486099,1.99437485 85.3486099,2.67438472 L85.3486099,7.72677249 L87.1737699,7.72677249 C87.1928973,7.72585554 87.2119738,7.72586662 87.2309375,7.72677249 L91.0931741,7.72677249 C91.8992371,7.72677249 92.5228984,7.99834876 92.8516585,8.49338739 C93.0613659,8.81093917 93.2328455,9.3562301 92.8702263,10.1463674 C92.5307187,10.888241 91.8018796,12.2891096 90.5658705,13.8040471 C91.2250718,14.6121884 92.0313965,15.4080143 93.0141817,16.1135609 C93.2741316,16.3017397 93.3287429,16.659921 93.1386955,16.9165285 C93.0207351,17.0694238 92.8470711,17.1485444 92.6657616,17.1485444 C92.5456167,17.1485444 92.4232873,17.1132609 92.3217103,17.0373478 C91.3141162,16.314347 90.4786614,15.5118576 89.7875306,14.6955605 C89.0347065,15.5014138 88.1364942,16.3095285 87.0759658,17.0416246 C86.9722043,17.1175377 86.8542438,17.1485444 86.7395601,17.1485444 C86.5538816,17.1485444 86.372572,17.0640778 86.2600727,16.9069057 C86.0722098,16.6470906 86.1355589,16.2889093 86.3998777,16.1082149 C87.4542703,15.3797936 88.3367274,14.5710577 89.0662651,13.7704567 C87.6018528,11.728941 86.9723831,9.75567547 86.7444708,8.87402184 Z M87.9632722,8.87402184 C88.211207,9.71725856 88.7637358,11.2438668 89.8505023,12.843569 C90.8850312,11.5263526 91.5054748,10.3303587 91.8031212,9.68019706 C91.8686548,9.53371695 91.9658629,9.26534828 91.8642859,9.11459137 C91.76817,8.96918046 91.4656233,8.87402184 91.0931741,8.87402184 L87.9632722,8.87402184 Z M79.3803577,10.0374434 L79.3803577,4.96760038 L76.4812614,4.96760038 C76.1590546,4.96760038 75.8958281,4.71206208 75.8958281,4.3966487 C75.8958281,4.07909692 76.1590546,3.82142023 76.4812614,3.82142023 L79.3803577,3.82142023 L79.3803577,0.575228472 C79.3803577,0.256607497 79.642492,0 79.9668832,0 C80.2912744,0 80.5534087,0.256607497 80.5534087,0.575228472 L80.5534087,3.82142023 L82.7844994,3.82142023 C83.1088906,3.82142023 83.3710249,4.07909692 83.3710249,4.3966487 C83.3710249,4.71206208 83.1088906,4.96760038 82.7844994,4.96760038 L80.5534087,4.96760038 L80.5534087,9.5626751 L82.5600469,8.75052949 C82.8604091,8.62543333 83.2011837,8.76763665 83.3267897,9.05952768 C83.4513035,9.35248791 83.3093141,9.68607765 83.0100441,9.80903541 L80.5534087,10.8038973 L80.5534087,15.2146862 C80.5534087,16.2550157 80.2967355,17.3156601 78.4028151,17.3156601 L77.3444478,17.3156601 C77.0287944,17.3038989 76.7699368,17.0515682 76.7699368,16.7457776 C76.7699368,16.4282258 77.0200566,16.1716183 77.3444478,16.1716183 L78.4028151,16.1716183 C79.2940718,16.1716183 79.3803577,16.0037542 79.3803577,15.2146862 L79.3803577,11.2789469 L76.7078983,12.3612108 C76.6325347,12.3922175 76.5571711,12.4071863 76.4807153,12.4071863 C76.2502555,12.4071863 76.0350869,12.2724674 75.9411555,12.0532818 C75.8177339,11.7592524 75.9597233,11.4235242 76.2568089,11.3016357 L79.3803577,10.0374434 Z M67.6798485,10.1779087 C67.8025377,10.2435989 67.901595,10.3524122 67.9510832,10.4922529 C67.9641899,10.530744 69.3240116,14.3103586 72.2435325,16.451962 C72.5012979,16.64121 72.5537248,17.0036681 72.3593085,17.2538604 C72.2435325,17.4056865 72.0665919,17.483738 71.8907434,17.483738 C71.7695063,17.483738 71.6460847,17.4473852 71.5401388,17.3714722 C68.3289935,15.0106832 66.9036381,11.033267 66.8446579,10.8664721 C66.7506676,10.5971554 66.8708187,10.3080787 67.1162138,10.1779087 L65.9365395,10.1779087 C65.4333355,12.2461905 64.1380935,15.2634925 61.5982581,17.4448192 C61.4857588,17.541047 61.3514149,17.5891609 61.21161,17.5891609 C61.0499605,17.5891609 60.888311,17.5218014 60.7714428,17.3924285 C60.5573664,17.1561357 60.5824876,16.7936776 60.8260541,16.5830457 C63.0758578,14.6511825 64.2359881,12.0032581 64.726874,10.1779087 L60.5576941,10.1779087 C60.2354873,10.1779087 59.9744452,9.92343959 59.9744452,9.60588781 C59.9744452,9.29047443 60.2354873,9.03172854 60.5576941,9.03172854 L64.9698036,9.03172854 C65.0057338,8.78419681 65.0223875,8.57699432 65.0223875,8.41971966 L65.0223875,4.32768544 L62.4309714,4.32768544 C62.105488,4.32768544 61.8433537,4.07107794 61.8433537,3.75031857 C61.8433537,3.43597438 62.105488,3.18043609 62.4309714,3.18043609 L65.0223875,3.18043609 L65.0223875,0.644512497 C65.0223875,0.328029917 65.2845219,0.0703532221 65.6078208,0.0703532221 C65.9311198,0.0703532221 66.1932541,0.328029917 66.1932541,0.644512497 L66.1932541,3.18043609 L68.9570236,3.18043609 C70.2491273,3.18043609 71.0169624,3.94277419 71.0169624,5.22260408 L71.0169624,9.03172854 L72.5284944,9.03172854 C72.8517934,9.03172854 73.1150199,9.29047443 73.1150199,9.60588781 C73.1150199,9.92343959 72.8517934,10.1779087 72.5284944,10.1779087 L67.6798485,10.1779087 Z M66.1932541,4.32768544 L66.1932541,8.41971966 C66.1932541,8.59172615 66.1797032,8.79759659 66.1511809,9.03172854 L69.847188,9.03172854 L69.847188,5.22260408 C69.847188,4.57573935 69.5948837,4.32768544 68.9570236,4.32768544 L66.1932541,4.32768544 Z M56.9791238,5.38234225 L58.1484613,5.38234225 L58.1484613,0.645474775 C58.1484613,0.328992195 58.4095034,0.0702463023 58.7338946,0.0702463023 C59.0550091,0.0702463023 59.3171434,0.328992195 59.3171434,0.645474775 L59.3171434,5.38234225 L60.3966999,5.38234225 C60.7199989,5.38234225 60.9832254,5.64001894 60.9832254,5.95757072 C60.9832254,6.2740533 60.7199989,6.53173 60.3966999,6.53173 L59.3171434,6.53173 L59.3171434,17.2479798 C59.3171434,17.5633932 59.0550091,17.8200007 58.7338946,17.8200007 C58.4095034,17.8200007 58.1484613,17.5633932 58.1484613,17.2479798 L58.1484613,6.53173 L56.9791238,6.53173 L56.9791238,11.1543002 C56.9791238,11.4697136 56.714805,11.7263211 56.3904138,11.7263211 C56.0703915,11.7263211 55.8082572,11.4697136 55.8082572,11.1543002 L55.8082572,4.04092656 C55.8082572,3.72444398 56.0703915,3.46462889 56.3904138,3.46462889 C56.714805,3.46462889 56.9791238,3.72444398 56.9791238,4.04092656 L56.9791238,5.38234225 Z M39.6804477,8.67953475 L51.7882091,8.67953475 C52.1126003,8.67953475 52.3758268,8.42292725 52.3758268,8.10751387 C52.3758268,7.78996209 52.1126003,7.53335459 51.7882091,7.53335459 L39.3164248,7.53335459 C39.2838268,7.53064823 39.2513547,7.53069374 39.2193162,7.53335459 L34.7156197,7.53335459 C34.3912285,7.53335459 34.1312786,7.78996209 34.1312786,8.10751387 C34.1312786,8.42292725 34.3912285,8.67953475 34.7156197,8.67953475 L38.432792,8.67953475 L36.2775033,14.4208067 C36.2392754,14.4945814 35.9148842,15.1467921 36.2895178,15.7466121 C36.5778655,16.2127824 37.1665755,16.448006 38.0348954,16.448006 L48.4645644,16.448006 C49.3536366,16.448006 49.9882201,16.210644 50.3442859,15.7412661 C50.7811764,15.1649685 50.5998668,14.5181037 50.5463478,14.3673468 L48.9768186,11.11057 C48.8402903,10.8261634 48.4907778,10.705344 48.1980612,10.8389938 C47.9042523,10.9737127 47.7797385,11.3147868 47.9162668,11.6013319 L49.4530292,14.7640193 C49.4530292,14.7672269 49.4967183,14.9436445 49.4027868,15.0601871 C49.3438066,15.1361001 49.1362836,15.3039642 48.4645644,15.3039642 L38.0348954,15.3039642 C37.5062579,15.3039642 37.3129338,15.1906292 37.2889049,15.1489305 C37.270337,15.124339 37.2889049,15.0099348 37.3467928,14.881631 L39.6804477,8.67953475 Z M50.3866643,3.29387798 L36.118912,3.29387798 C35.795613,3.29387798 35.5323865,3.03727049 35.5323865,2.71971871 C35.5323865,2.40216693 35.795613,2.14769783 36.118912,2.14769783 L50.3866643,2.14769783 C50.7099633,2.14769783 50.9720976,2.40216693 50.9720976,2.71971871 C50.9720976,3.03727049 50.7099633,3.29387798 50.3866643,3.29387798 Z" id="Combined-Shape"></path>
                <path d="M15.7757917,13.8546481 C15.5627911,13.9566474 15.3690683,14.0457454 15.1946232,14.1219421 C11.1515078,15.9346931 7.73788604,16.1578995 6.35099142,16.1841248 C6.05116223,16.1896612 5.7581272,16.1369193 5.4766127,16.0958329 C3.96771861,15.8749576 2.3642971,14.7621308 2.3642971,13.1341224 C2.3642971,11.5061141 3.70688199,10.1820279 5.35727182,10.1820279 L7.62386233,10.1820279 C8.07316301,10.1820279 8.43679822,9.82332405 8.43679822,9.38011648 C8.43679822,6.28319998 10.9905158,3.76382286 14.1291218,3.76382286 C16.8958215,3.76382286 19.2533947,5.71032288 19.7348938,8.39200547 C19.8134697,8.82851101 20.2450465,9.01500203 20.6881438,8.93924006 C21.1294687,8.86202112 21.4142326,8.54848309 21.3362475,8.11226894 C20.716502,4.66335064 17.6860117,2.16000009 14.1291218,2.16000009 C10.3689979,2.16000009 7.26318111,4.97310057 6.85700856,8.5782051 L5.35727182,8.5782051 C2.8106438,8.5782051 0.738425319,10.6220301 0.738425319,13.1341224 C0.738425319,15.6607844 3.05671052,17.3633891 5.23822634,17.6821722 C5.88426224,17.7765833 6.57047229,17.8200007 7.28740376,17.8200007 C10.2576328,17.8200007 13.2243171,17.4910189 16.0941108,16.8700621 C16.3611075,16.7995697 16.6558944,16.7574497 16.9109543,16.687161 C16.9124186,16.6871982 16.913883,16.6872351 16.9153473,16.6872717 C20.3455114,15.8722477 23.6158651,14.6277115 26.566007,13.0131072 C26.5620376,13.0131072 26.6931297,12.9596677 26.9739727,12.8062468 C27.0375305,12.7715261 27.1470846,12.7069176 27.3026351,12.6124215 C27.3171695,12.6046691 27.3316079,12.5966634 27.345947,12.5884031 C28.3567997,12.0047445 28.4912058,10.374405 27.6460715,8.94716592 C26.7991649,7.51963544 25.2944064,6.83573791 24.2817813,7.41881374 C24.1041572,7.52126146 23.9535904,7.65598029 23.8306425,7.81620611 C23.6397531,8.04421873 23.4667406,8.22893503 23.3116049,8.37035503 C20.7959937,10.9587921 18.1914676,12.6925758 15.7807228,13.8499857 C15.7806457,13.8500618 15.7789454,13.8516326 15.7757917,13.8546481 Z" id="Combined-Shape-Copy-4"></path>
            </g>
        </g>
    </g>
</svg>