<?xml version="1.0" encoding="UTF-8"?>
<svg width="33px" height="34px" viewBox="0 0 33 34" version="1.1" xmlns="http://www.w3.org/2000/svg" xmlns:xlink="http://www.w3.org/1999/xlink">
    <!-- Generator: Sketch 46.2 (44496) - http://www.bohemiancoding.com/sketch -->
    <title>people-change</title>
    <desc>Created with Sketch.</desc>
    <defs></defs>
    <g id="火车票" stroke="none" stroke-width="1" fill="none" fill-rule="evenodd">
        <g id="app" transform="translate(-251.000000, -76.000000)">
            <g id="Group-8" transform="translate(252.000000, 77.000000)">
                <g id="Group-6" transform="translate(3.875000, 7.619048)">
                    <g id="Group">
                        <path d="M8.8152587,7.71441344 C6.69077518,7.71441344 4.968541,5.98748317 4.968541,3.85720672 C4.968541,1.72693027 6.69077518,0 8.8152587,0 C10.9397422,0 12.6619764,1.72693027 12.6619764,3.85720672 C12.6619764,5.98748317 10.9397422,7.71441344 8.8152587,7.71441344 Z M16.6803363,12.9690569 L16.6803363,12.9690569 C16.9221653,13.296184 17.0526718,13.6922629 17.0526718,14.0990717 C17.0526718,15.1489261 16.2015966,16.0000012 15.1517422,16.0000012 L15.1517422,15.9999559 L2.68912279,16.0000055 C2.2895872,16.0000055 1.90003801,15.8751561 1.57493614,15.6429117 C0.713555239,15.0275634 0.514106409,13.8304378 1.12945471,12.9690569 L1.12945471,12.9690569 C2.65046588,10.8399051 5.56746972,9.42872754 8.91612637,9.42872754 C12.1801197,9.42872754 15.1295769,10.871313 16.6803363,12.9690569 Z" id="Combined-Shape" fill="#007aff"></path>
                        <path d="M17.7453307,15.9999797 L20.572817,15.9999844 L20.572817,15.9999987 C21.6245111,15.9999987 22.4770775,15.1474322 22.4770775,14.0957381 C22.4770775,13.6904824 22.3477905,13.2957947 22.1080204,12.96908 C20.7398389,11.1047727 18.2749583,9.75792396 15.4688567,9.48125228 C16.7592836,10.2498293 17.8459756,11.2695717 18.6222864,12.4531771 L18.6222864,12.4531771 C18.8885573,12.8591483 19.0304107,13.3340724 19.0304107,13.8195751 C19.0304107,14.7579094 18.5116751,15.5750865 17.7453307,15.9999797 Z M13.175,7.54430822 C13.5306607,7.65489713 13.9084736,7.71442717 14.3000519,7.71442717 C16.4091094,7.71442717 18.1188383,5.98749382 18.1188383,3.85721358 C18.1188383,1.72693334 16.4091094,0 14.3000519,0 C14.092928,0 13.8896555,0.0166555605 13.6914754,0.048713027 C14.4730342,0.993980682 14.9423204,2.20457769 14.9423204,3.52425124 C14.9423204,5.11338574 14.2618236,6.54435187 13.175,7.54430822 Z" id="Combined-Shape-Copy" fill="#007aff"></path>
                    </g>
                </g>
                <path d="M24.9305938,3.90590546 C22.3180422,1.93402692 19.0482556,0.761904762 15.5,0.761904762 C6.93958638,0.761904762 0,7.58423238 0,16 C0,19.4869073 1.19131583,22.7002694 3.19563533,25.2681665 M6.51528136,28.4183759 C9.04974033,30.1938084 12.150821,31.2380952 15.5,31.2380952 L15.5,31.2380952 C24.0604136,31.2380952 31,24.4157676 31,16 C31,12.819979 30.0091541,9.86747202 28.3144209,7.42458884" id="Oval-13" stroke="#007aff" stroke-width="1.0285714"></path>
                <polyline id="Path-6" stroke="#007aff" stroke-width="1.0285714" points="20.925 4.23344494 24.8649933 3.8139881 23.7416595 0"></polyline>
                <g id="Group-7" stroke="#007aff" stroke-width="1.0285714">
                    <path d="M24.9305938,3.90590546 C22.3180422,1.93402692 19.0482556,0.761904762 15.5,0.761904762 C6.93958638,0.761904762 0,7.58423238 0,16 C0,19.4869073 1.19131583,22.7002694 3.19563533,25.2681665" id="Oval-13-Copy"></path>
                    <polyline id="Path-6-Copy" points="20.925 4.23344494 24.8649933 3.8139881 23.7416595 0"></polyline>
                </g>
                <g id="Group-7-Copy" transform="translate(18.500000, 19.000000) scale(-1, -1) translate(-18.500000, -19.000000) translate(6.000000, 6.000000)" stroke="#007aff" stroke-width="1.0285714">
                    <path d="M24.9305938,3.90590546 C22.3180422,1.93402692 19.0482556,0.761904762 15.5,0.761904762 C6.93958638,0.761904762 0,7.58423238 0,16 C0,19.4869073 1.19131583,22.7002694 3.19563533,25.2681665" id="Oval-13-Copy"></path>
                    <polyline id="Path-6-Copy" points="20.925 4.23344494 24.8649933 3.8139881 23.7416595 0"></polyline>
                </g>
            </g>
        </g>
    </g>
</svg>