<?xml version="1.0" encoding="UTF-8"?>
<svg width="375px" height="80px" viewBox="0 0 375 80" version="1.1" xmlns="http://www.w3.org/2000/svg" xmlns:xlink="http://www.w3.org/1999/xlink">
    <!-- Generator: Sketch 46.2 (44496) - http://www.bohemiancoding.com/sketch -->
    <title>pic-train</title>
    <desc>Created with Sketch.</desc>
    <defs>
        <rect id="path-1" x="0" y="0" width="334" height="80"></rect>
        <ellipse id="path-3" cx="199.083208" cy="58.3456606" rx="6.699208" ry="6.79010502"></ellipse>
        <ellipse id="path-4" cx="102.891208" cy="58.3456606" rx="6.699208" ry="6.79010502"></ellipse>
        <ellipse id="path-5" cx="222.240541" cy="58.3456606" rx="6.699208" ry="6.79010502"></ellipse>
        <ellipse id="path-6" cx="126.048541" cy="58.3456606" rx="6.699208" ry="6.79010502"></ellipse>
        <ellipse id="path-7" cx="296.29385" cy="58.086092" rx="6.699208" ry="6.79010502"></ellipse>
        <ellipse id="path-8" cx="319.740489" cy="58.086092" rx="6.699208" ry="6.79010502"></ellipse>
        <path d="M353.235744,54.6912384 L53.3895521,54.6912384 L53.3895521,0.371591849 L299.643257,0.371591849 C326.439697,0.371591849 359.934952,27.5320119 359.934952,41.1114263 L359.934952,47.9011334 C359.934952,51.651267 356.935676,54.6912384 353.235744,54.6912384 Z" id="path-9"></path>
    </defs>
    <g id="火车票" stroke="none" stroke-width="1" fill="none" fill-rule="evenodd">
        <g id="app" transform="translate(-50.000000, -213.000000)">
            <g id="Group-3" transform="translate(91.000000, 213.000000)">
                <mask id="mask-2" fill="white">
                    <use xlink:href="#path-1"></use>
                </mask>
                <g id="Mask"></g>
                <g mask="url(#mask-2)">
                    <g transform="translate(32.954667, 14.222222)">
                        <g id="火车插画" opacity="0.400000006" stroke-width="1" fill="none" transform="translate(180.720000, 33.000000) scale(-1, 1) translate(-180.720000, -33.000000) translate(0.720000, 0.000000)">
                            <rect id="Rectangle-path" stroke="#FFFFFF" stroke-width="1.77999997" x="200.399333" y="52.4455555" width="21.6666392" height="8.40495863"></rect>
                            <rect id="Rectangle-path-Copy" stroke="#FFFFFF" stroke-width="1.77999997" x="103.316667" y="52.4455555" width="21.6666392" height="8.40495863"></rect>
                            <g id="Oval">
                                <use fill="#007aff" fill-rule="evenodd" xlink:href="#path-3"></use>
                                <ellipse stroke="#FFFFFF" stroke-width="1.77999997" cx="199.083208" cy="58.3456606" rx="5.80920801" ry="5.90010503"></ellipse>
                            </g>
                            <g id="Oval-Copy">
                                <use fill="#007aff" fill-rule="evenodd" xlink:href="#path-4"></use>
                                <ellipse stroke="#FFFFFF" stroke-width="1.77999997" cx="102.891208" cy="58.3456606" rx="5.80920801" ry="5.90010503"></ellipse>
                            </g>
                            <g id="Oval">
                                <use fill="#007aff" fill-rule="evenodd" xlink:href="#path-5"></use>
                                <ellipse stroke="#FFFFFF" stroke-width="1.77999997" cx="222.240541" cy="58.3456606" rx="5.80920801" ry="5.90010503"></ellipse>
                            </g>
                            <g id="Oval-Copy-2">
                                <use fill="#007aff" fill-rule="evenodd" xlink:href="#path-6"></use>
                                <ellipse stroke="#FFFFFF" stroke-width="1.77999997" cx="126.048541" cy="58.3456606" rx="5.80920801" ry="5.90010503"></ellipse>
                            </g>
                            <rect id="Rectangle-path" stroke="#FFFFFF" stroke-width="1.77999997" x="297.18385" y="52.185987" width="21.6666392" height="8.40495863"></rect>
                            <g id="Oval">
                                <use fill="#007aff" fill-rule="evenodd" xlink:href="#path-7"></use>
                                <ellipse stroke="#FFFFFF" stroke-width="1.77999997" cx="296.29385" cy="58.086092" rx="5.80920801" ry="5.90010503"></ellipse>
                            </g>
                            <g id="Oval">
                                <use fill="#007aff" fill-rule="evenodd" xlink:href="#path-8"></use>
                                <ellipse stroke="#FFFFFF" stroke-width="1.77999997" cx="319.740489" cy="58.086092" rx="5.80920801" ry="5.90010503"></ellipse>
                            </g>
                            <path d="M287.860606,60.4085253 L291.788454,52.4455555 L227.660722,52.4455555 L231.58852,60.4084244 C231.722866,60.6805728 231.994279,60.8505142 232.288727,60.8505142 L287.160842,60.8505142 C287.455107,60.8505142 287.726179,60.6807453 287.860606,60.4085253 Z" id="Shape" stroke="#FFFFFF" stroke-width="1.77999997"></path>
                            <path d="M190.77794,60.4085253 L194.705788,52.4455555 L130.578056,52.4455555 L134.505854,60.4084244 C134.640199,60.6805728 134.911613,60.8505142 135.20606,60.8505142 L190.078175,60.8505142 C190.372441,60.8505142 190.643513,60.6807453 190.77794,60.4085253 Z" id="Shape-Copy-4" stroke="#FFFFFF" stroke-width="1.77999997"></path>
                            <path d="M94.5859397,60.4085253 L98.5137877,52.4455555 L34.3860555,52.4455555 L38.3138537,60.4084244 C38.4481992,60.6805728 38.7196128,60.8505142 39.0140605,60.8505142 L93.8861753,60.8505142 C94.1804407,60.8505142 94.4515126,60.6807453 94.5859397,60.4085253 Z" id="Shape-Copy-5" stroke="#FFFFFF" stroke-width="1.77999997"></path>
                            <path d="M324.521286,52.185987 L328.449084,60.1488559 C328.583429,60.4210042 328.854843,60.5909456 329.14929,60.5909456 L354.553055,60.5909456 C355.460592,60.5909456 356.009702,59.5510578 355.497721,58.7728932 L351.165358,52.185987 L324.521286,52.185987 Z" id="Shape" stroke="#FFFFFF" stroke-width="1.77999997"></path>
                            <g id="Shape">
                                <use fill="#17ABCB" fill-rule="evenodd" xlink:href="#path-9"></use>
                                <path stroke="#FFFFFF" stroke-width="1.77999997" d="M54.2795521,1.26159183 L54.2795521,53.8012385 L353.235744,53.8012385 C356.441437,53.8012385 359.044952,51.1623985 359.044952,47.9011334 L359.044952,41.1114263 C359.044952,34.8438493 351.110051,24.9089445 339.315849,16.3701298 C326.543594,7.12322166 311.863468,1.26159183 299.643257,1.26159183 L54.2795521,1.26159183 Z"></path>
                            </g>
                            <path d="M343.184327,30.9244784 C343.175712,30.9244784 343.170621,30.9260448 343.161614,30.9260448 L343.187068,30.9260448 L343.184327,30.9244784 Z" id="Shape" fill="#64BEF0"></path>
                            <g id="Group" transform="translate(164.773333, 9.777778)" stroke="#FFFFFF" stroke-width="1.77999997">
                                <path d="M161.586185,17.8479953 L161.586147,17.8479698 L139.944648,3.22613591 C138.441513,2.21032821 136.675578,1.66837481 134.869924,1.66837481 L4.23791955,1.66837481 C2.88234396,1.66837481 1.7785118,2.78727469 1.7785118,4.17322841 L1.7785118,17.7534384 C1.7785118,19.1394834 2.88243262,20.258292 4.23791955,20.258292 L160.878568,20.258292 C162.147981,20.258292 162.652646,18.5684581 161.586185,17.8479953 Z" id="Shape"></path>
                                <path d="M26.0100512,16.8634385 C26.4406607,16.8634385 26.7947634,16.5045312 26.7949513,16.0558127 L26.7949513,5.87085412 C26.7949513,5.42215948 26.4407678,5.06322839 26.0100512,5.06322839 L9.26222742,5.06322839 C8.83145485,5.06322839 8.47732727,5.42221899 8.47732727,5.87085412 L8.47732727,16.0558127 C8.47732727,16.5045074 8.83151079,16.8634385 9.26222742,16.8634385 L26.0100512,16.8634385 Z" id="Shape"></path>
                                <path d="M52.8060981,16.8634385 C53.237039,16.8634385 53.5909983,16.5046765 53.5909983,16.0558127 L53.5909983,5.87085412 C53.5909983,5.42215948 53.2368147,5.06322839 52.8060981,5.06322839 L36.0582744,5.06322839 C35.6275018,5.06322839 35.2733742,5.42221899 35.2733742,5.87085412 L35.2733742,16.0558127 C35.2733742,16.5045074 35.6275577,16.8634385 36.0582744,16.8634385 L52.8060981,16.8634385 Z" id="Shape"></path>
                                <path d="M79.6025376,16.8634385 C80.0332542,16.8634385 80.3874377,16.5045074 80.3874377,16.0558127 L80.3874377,5.87085412 C80.3874377,5.42215948 80.0332542,5.06322839 79.6025376,5.06322839 L62.8547138,5.06322839 C62.4239413,5.06322839 62.0698137,5.42221899 62.0698137,5.87085412 L62.0698137,16.0558127 C62.0698137,16.5045074 62.4239972,16.8634385 62.8547138,16.8634385 L79.6025376,16.8634385 Z" id="Shape"></path>
                                <path d="M106.398977,16.8634385 C106.829587,16.8634385 107.183689,16.5045312 107.183877,16.0558127 L107.183877,5.87085412 C107.183877,5.42215948 106.829694,5.06322839 106.398977,5.06322839 L89.6511533,5.06322839 C89.2203807,5.06322839 88.8662532,5.42221899 88.8662532,5.87085412 L88.8662532,16.0558127 C88.8662532,16.5045074 89.2204367,16.8634385 89.6511533,16.8634385 L106.398977,16.8634385 Z" id="Shape"></path>
                            </g>
                            <g id="Group-Copy" transform="translate(74.568000, 20.777778) scale(-1, 1) translate(-74.568000, -20.777778) translate(31.568000, 9.777778)" stroke="#FFFFFF" stroke-width="1.77999997">
                                <path d="M81.3470625,1.66837481 L4.23791955,1.66837481 C2.88234396,1.66837481 1.7785118,2.78727469 1.7785118,4.17322841 L1.7785118,17.7534384 C1.7785118,19.1394834 2.88243262,20.258292 4.23791955,20.258292 L81.3470625,20.258292 L81.3470625,1.66837481 Z" id="Shape"></path>
                                <path d="M26.4387239,17.1346545 C26.8693334,17.1346545 27.2234361,16.7757473 27.223624,16.3270288 L27.223624,6.14207016 C27.223624,5.69337552 26.8694405,5.33444443 26.4387239,5.33444443 L9.69090013,5.33444443 C9.26012756,5.33444443 8.90599999,5.69343503 8.90599999,6.14207016 L8.90599999,16.3270288 C8.90599999,16.7757234 9.2601835,17.1346545 9.69090013,17.1346545 L26.4387239,17.1346545 Z" id="Shape"></path>
                                <path d="M54.9400572,17.1346545 C55.3706668,17.1346545 55.7247694,16.7757473 55.7249573,16.3270288 L55.7249573,6.14207016 C55.7249573,5.69337552 55.3707738,5.33444443 54.9400572,5.33444443 L38.1922335,5.33444443 C37.7614609,5.33444443 37.4073333,5.69343503 37.4073333,6.14207016 L37.4073333,16.3270288 C37.4073333,16.7757234 37.7615168,17.1346545 38.1922335,17.1346545 L54.9400572,17.1346545 Z" id="Shape-Copy-2"></path>
                            </g>
                            <path d="M297.968357,26.6412162 C298.399298,26.6412162 298.753257,26.2824543 298.753257,25.8335905 L298.753257,15.6486319 C298.753257,15.1999373 298.399074,14.8410062 297.968357,14.8410062 L281.220534,14.8410062 C280.789761,14.8410062 280.435633,15.1999968 280.435633,15.6486319 L280.435633,25.8335905 C280.435633,26.2822851 280.789817,26.6412162 281.220534,26.6412162 L297.968357,26.6412162 Z" id="Shape" stroke="#FFFFFF" stroke-width="1.77999997"></path>
                            <path d="M339.839875,43.2330405 C341.195451,43.2330405 342.299283,42.1141406 342.299283,40.7281869 C342.299283,39.3422332 341.195451,38.2233333 339.839875,38.2233333 L169.013408,38.2233333 C167.657921,38.2233333 166.554,39.3421419 166.554,40.7281869 C166.554,42.1141406 167.657832,43.2330405 169.013408,43.2330405 L339.839875,43.2330405 Z" id="Shape" stroke="#FFFFFF" stroke-width="1.77999997"></path>
                            <path d="M114.501209,43.2330405 C115.856784,43.2330405 116.960616,42.1141406 116.960616,40.7281869 C116.960616,39.3422332 115.856784,38.2233333 114.501209,38.2233333 L41.8613333,38.2233333 C40.5058464,38.2233333 39.4019256,39.3421419 39.4019256,40.7281869 C39.4019256,42.1141406 40.5057577,43.2330405 41.8613333,43.2330405 L114.501209,43.2330405 Z" id="Shape-Copy" stroke="#FFFFFF" stroke-width="1.77999997"></path>
                            <path d="M359.044952,43.615882 L359.044952,41.1110284 C359.044952,40.3619864 358.916471,39.5269696 358.663455,38.6061748 L353.235744,38.6061748 C351.880409,38.6061748 350.776336,39.725228 350.776336,41.1110284 C350.776336,42.4970734 351.880257,43.615882 353.235744,43.615882 L359.044952,43.615882 Z" id="Shape" stroke="#FFFFFF" stroke-width="1.77999997"></path>
                            <path d="M325.448862,8.05169685 L313.031075,8.05169685 C311.998946,8.05169685 311.605354,9.44233938 312.490307,10.002832 L322.20962,16.1595754 C332.33348,22.5730442 340.963787,26.1179356 350.996969,26.5793197 C345.148822,20.2665267 336.85694,14.0040005 327.981357,9.33590033 L327.98498,9.33779544 C327.870488,9.27809443 327.870488,9.27809443 327.756825,9.21846181 L327.730947,9.20487623 C327.493731,9.0803289 327.425479,9.04463543 327.315463,8.98798336 C326.665552,8.65296617 326.048413,8.34314104 325.448862,8.05169685 Z" id="Shape" stroke="#FFFFFF" stroke-width="1.77999997"></path>
                        </g>
                        <path d="M221.901722,32.3204042 C221.735932,32.4007266 221.585147,32.4708894 221.449367,32.5308927 C218.302394,33.9583965 215.645389,34.134167 214.565894,34.1548189 C214.332521,34.1591787 214.104436,34.1176455 213.885319,34.0852909 C212.710865,33.9113561 211.462837,33.035028 211.462837,31.7530052 C211.462837,30.4709823 212.507842,29.4282919 213.792429,29.4282919 L215.556638,29.4282919 C215.906353,29.4282919 216.18939,29.14582 216.18939,28.7968032 C216.18939,26.3580456 218.177085,24.3740883 220.62003,24.3740883 C222.773501,24.3740883 224.608527,25.9069168 224.983303,28.0186863 C225.044463,28.3624254 225.380382,28.5092832 225.725269,28.4496222 C226.068776,28.3888139 226.290423,28.1419092 226.229723,27.7983996 C225.747342,25.0824478 223.388548,23.1111111 220.62003,23.1111111 C217.693324,23.1111111 215.275901,25.3263695 214.959755,28.1653146 L213.792429,28.1653146 C211.810252,28.1653146 210.197333,29.7747845 210.197333,31.7530052 C210.197333,33.7426991 212.001779,35.0834651 213.69977,35.3345002 C214.202614,35.4088469 214.736728,35.4430373 215.294754,35.4430373 C217.606643,35.4430373 219.915772,35.1839709 222.149487,34.6949803 C222.357304,34.639469 222.586753,34.6063004 222.78528,34.5509495 C222.786419,34.5509788 222.787559,34.5510079 222.788699,34.5510367 C225.45858,33.9092221 228.004071,32.9291757 230.300325,31.6577082 C230.297235,31.6577082 230.399271,31.6156257 230.617866,31.4948099 C230.667337,31.467468 230.752609,31.4165902 230.873682,31.3421765 C230.884995,31.3360716 230.896233,31.3297673 230.907394,31.3232625 C231.694195,30.8636434 231.79881,29.5797849 231.140997,28.4558636 C230.481804,27.331713 229.31057,26.7931578 228.522389,27.2523179 C228.384135,27.3329934 228.266941,27.4390817 228.171244,27.5652562 C228.022665,27.7448114 227.888,27.8902717 227.767249,28.001637 C225.809214,30.0399776 223.781972,31.4052964 221.90556,32.3167327 C221.9055,32.3167926 221.904176,32.3180295 221.901722,32.3204042 Z" id="Combined-Shape-Copy-4" fill="#FFFFFF" opacity="0.5"></path>
                    </g>
                </g>
            </g>
        </g>
    </g>
</svg>