<?xml version="1.0" encoding="UTF-8"?>
<svg width="22px" height="18px" viewBox="0 0 22 18" version="1.1" xmlns="http://www.w3.org/2000/svg" xmlns:xlink="http://www.w3.org/1999/xlink">
    <!-- Generator: Sketch 48.1 (47250) - http://www.bohemiancoding.com/sketch -->
    <title>Delete</title>
    <desc>Created with Sketch.</desc>
    <defs></defs>
    <g id="身份证输入-数字键盘" stroke="none" stroke-width="1" fill="none" fill-rule="evenodd" transform="translate(-302.000000, -181.000000)">
        <g id="Keyboard-Numberic-Copy" fill="#3F434A" fill-rule="nonzero">
            <path d="M308.876521,195.9826 C308.96771,196.078655 309.059791,196.172547 309.205992,196.319475 C309.279331,196.396711 309.353422,196.471227 309.455891,196.572349 C309.484213,196.59882 309.490221,196.605255 309.556226,196.677071 C309.57844,196.701241 309.595435,196.71946 309.604295,196.728428 C309.806618,196.936009 310.039264,197.109796 310.292439,197.242782 C310.549194,197.376889 310.824354,197.469927 311.108033,197.518616 C311.424967,197.572821 311.745459,197.602103 312.076952,197.606418 C312.173927,197.609173 312.2162,197.610328 312.268742,197.611584 C312.374558,197.614114 312.462201,197.615385 312.54545,197.615385 L318.276092,197.615385 L318.276092,199 L318.274296,198.307692 L318.274296,197.615385 L318.852972,197.615385 C318.980183,197.615385 319.084918,197.613148 319.330856,197.606207 C319.652912,197.60212 319.974199,197.572827 320.291331,197.518686 C320.574226,197.47012 320.848203,197.377234 321.104829,197.242681 C321.35913,197.109961 321.591372,196.936656 321.79134,196.730839 C321.993659,196.52121 322.163736,196.281119 322.291709,196.026923 C322.421766,195.759926 322.512997,195.474748 322.561396,195.187161 C322.613096,194.860854 322.641098,194.531043 322.645415,194.188658 C322.650591,194.009644 322.653198,193.854209 322.653198,193.706154 L322.653198,186.59038 C322.653198,186.442113 322.653198,186.442113 322.653263,186.303461 C322.652448,186.239949 322.652448,186.239949 322.65173,186.177317 C322.649617,185.993019 322.648338,185.912441 322.645171,185.799538 C322.641098,185.468957 322.613096,185.139146 322.562483,184.819492 C322.512997,184.525252 322.421766,184.240074 322.294557,183.978856 C322.164265,183.717516 321.995086,183.478691 321.792916,183.270789 C321.591372,183.063344 321.35913,182.890039 321.103706,182.756731 C320.848203,182.622766 320.574226,182.52988 320.287764,182.480692 C319.973063,182.424877 319.654423,182.395826 319.320469,182.393579 C319.084918,182.386852 318.980183,182.384615 318.852972,182.384615 L312.543654,182.384615 C312.460405,182.384615 312.372762,182.385886 312.266947,182.388416 C312.214405,182.389672 312.172131,182.390827 312.060694,182.393833 C311.742149,182.395843 311.424309,182.424883 311.106619,182.481318 C310.822558,182.530073 310.547399,182.623111 310.292008,182.756503 C310.037468,182.890204 309.804823,183.063991 309.588919,183.285119 C309.51722,183.364006 309.488715,183.39489 309.464116,183.418965 C309.36673,183.513417 309.283165,183.59736 309.19258,183.692464 C309.045571,183.839915 308.963274,183.923745 308.869073,184.023283 L306.597571,186.359499 C306.56077,186.390622 306.546129,186.405403 306.529983,186.421797 C306.503856,186.448374 306.503856,186.448374 306.476953,186.475842 C306.363346,186.590019 306.317157,186.637256 306.258266,186.700469 L304.24527,188.768543 C304.224735,188.789322 304.224735,188.789322 304.202969,188.811711 C304.180636,188.834817 304.180636,188.834817 304.157231,188.859201 C304.108899,188.909651 304.084273,188.935235 304.058201,188.961843 C303.98633,189.035732 303.956798,189.066986 303.924666,189.104007 C303.752382,189.278086 303.623109,189.425013 303.503696,189.580234 L303.454533,189.637365 C303.425274,189.667808 303.400673,189.70256 303.381514,189.740427 C303.335366,189.909702 303.335231,190.08876 303.381112,190.258092 C303.403016,190.301382 303.430747,190.341348 303.463528,190.376791 C303.622868,190.573885 303.757054,190.725634 303.904609,190.876134 C303.924878,190.897339 303.924878,190.897339 303.944784,190.918196 C303.964224,190.938563 303.964224,190.938563 303.983367,190.958592 C304.022124,190.999057 304.037133,191.014651 304.058299,191.036418 C304.086916,191.06563 304.110196,191.089773 304.159139,191.140799 C304.206492,191.190158 304.225862,191.210246 304.25201,191.236947 L306.254587,193.298586 L306.450625,193.49546 L306.581525,193.628556 C306.60498,193.648473 306.62726,193.669857 306.648233,193.692597 L308.876521,195.9826 Z M312.68526,186.556048 C312.663773,186.522072 312.638569,186.489853 312.609647,186.46 C312.501392,186.347022 312.35358,186.283408 312.199322,186.283408 C312.045064,186.283408 311.897252,186.347022 311.788996,186.46 C311.564668,186.691556 311.563995,187.065414 311.786608,187.297827 L311.775528,187.309231 L314.395277,189.996145 L311.875162,192.587401 C311.840815,192.610071 311.808283,192.636835 311.778222,192.667692 C311.552832,192.901552 311.552832,193.278448 311.778222,193.512308 C312.003577,193.74363 312.367757,193.744891 312.594628,193.51624 L312.60426,193.526154 L315.217352,190.839297 L317.832545,193.521538 L317.839146,193.514782 C318.065325,193.745879 318.430827,193.745533 318.656589,193.513743 C318.882688,193.281607 318.883179,192.905066 318.657686,192.672308 C318.631787,192.645279 318.603625,192.621077 318.573652,192.599894 L316.037115,189.996392 L318.654992,187.304615 L318.648518,187.297952 C318.873503,187.064798 318.872983,186.688314 318.646958,186.455822 C318.420412,186.222794 318.053041,186.222598 317.82626,186.455385 C317.802406,186.480135 317.781076,186.506488 317.762271,186.534104 L315.215345,189.152927 L312.68526,186.556048 Z M305.666981,194.646079 L305.506565,194.482953 L305.30757,194.283053 L303.301056,192.217428 C303.272439,192.188216 303.249159,192.164073 303.200216,192.113047 C303.152863,192.063688 303.133494,192.043601 303.107664,192.017228 C303.081722,191.990558 303.064453,191.972616 303.023035,191.92937 C302.963742,191.867276 302.963742,191.867276 302.950308,191.853137 C302.781112,191.680654 302.620451,191.499549 302.468932,191.310506 C302.330401,191.156259 302.217563,190.979494 302.135031,190.787322 L302.110158,190.720175 C301.963281,190.251931 301.963281,189.748069 302.110158,189.279825 L302.133204,189.216972 C302.214611,189.023892 302.328077,188.84697 302.468426,188.694078 C302.61378,188.507422 302.770092,188.330067 302.936489,188.163006 C302.983649,188.109435 303.025646,188.065247 303.107566,187.981033 C303.130402,187.957723 303.150456,187.936887 303.198308,187.886953 C303.223079,187.861144 303.223079,187.861144 303.248979,187.834347 C303.275445,187.807121 303.275445,187.807121 303.298172,187.784146 L305.294856,185.733065 C305.357106,185.665935 305.413129,185.608641 305.501115,185.520745 C305.555264,185.465472 305.555264,185.465472 305.583583,185.436664 C305.616668,185.40307 305.645099,185.374525 305.67326,185.346732 L307.909932,183.05131 C308.008068,182.947513 308.097041,182.856882 308.24046,182.713321 C308.333421,182.615419 308.429909,182.518496 308.5376,182.414058 C308.622402,182.320862 308.640499,182.301446 308.651137,182.291505 C308.952817,181.981985 309.299709,181.722854 309.680614,181.522782 C310.059537,181.324864 310.465621,181.187558 310.881048,181.116267 C311.267978,181.047517 311.659769,181.011721 312.037966,181.009495 C312.135864,181.006712 312.180458,181.005494 312.235634,181.004175 C312.351075,181.001415 312.44866,181 312.543654,181 L318.852972,181 C318.996768,181 319.109901,181.002416 319.343255,181.009244 C319.736606,181.011698 320.129091,181.047482 320.513156,181.115609 C320.931885,181.187494 321.337413,181.324979 321.714473,181.522681 C322.09563,181.721607 322.443722,181.981363 322.74559,182.292069 C323.046658,182.601673 323.298864,182.957704 323.495945,183.353077 C323.685021,183.741234 323.817651,184.155823 323.890679,184.590238 C323.953123,184.984361 323.986946,185.382715 323.991622,185.770196 C323.994863,185.882295 323.996231,185.968466 323.998438,186.161 C323.999151,186.223128 323.999151,186.223128 324,186.293846 L324,193.706154 C324,193.869176 323.997169,194.037967 323.991865,194.218 C323.986946,194.617285 323.953123,195.015639 323.889593,195.416415 C323.817651,195.844177 323.685021,196.258766 323.491936,196.655019 C323.297107,197.042212 323.046041,197.396633 322.745803,197.707712 C322.443722,198.018637 322.09563,198.278393 321.715596,198.476731 C321.337413,198.675021 320.931885,198.812506 320.512558,198.884494 C320.127384,198.950252 319.737898,198.985762 319.357866,198.990502 C319.109901,198.997584 318.996768,199 318.852972,199 L318.274296,199 L318.274296,197.615385 L318.276092,198.307692 L318.276092,199 L312.54545,199 C312.450456,199 312.352871,198.998585 312.23743,198.995825 C312.182253,198.994506 312.13766,198.993288 312.04999,198.990716 C311.660269,198.985737 311.271485,198.950216 310.886637,198.884395 C310.467417,198.812442 310.061333,198.675136 309.681045,198.476503 C309.301505,198.277146 308.954613,198.018015 308.666512,197.722042 C308.642562,197.698813 308.629416,197.684721 308.577394,197.62812 C308.561562,197.610894 308.538553,197.586245 308.537336,197.584802 C308.412113,197.461606 308.32865,197.377665 308.253872,197.298618 C308.112079,197.1564 308.013127,197.055502 307.918536,196.955788 L305.741543,194.718573 L305.666981,194.646079 Z" id="Delete"></path>
        </g>
    </g>
</svg>