<?xml version="1.0" encoding="UTF-8"?>
<svg width="321px" height="334px" viewBox="0 0 321 334" version="1.1" xmlns="http://www.w3.org/2000/svg" xmlns:xlink="http://www.w3.org/1999/xlink">
    <!-- Generator: Sketch 49.1 (51147) - http://www.bohemiancoding.com/sketch -->
    <title>Group 14</title>
    <desc>Created with Sketch.</desc>
    <defs>
        <rect id="path-1" x="0" y="0" width="321" height="104" rx="4"></rect>
        <rect id="path-3" x="10.4999998" y="26.0999965" width="241.499996" height="74.8999987"></rect>
        <filter x="-0.1%" y="-0.3%" width="100.2%" height="101.3%" filterUnits="objectBoundingBox" id="filter-4">
            <feOffset dx="0" dy="0.5" in="SourceAlpha" result="shadowOffsetOuter1"></feOffset>
            <feColorMatrix values="0 0 0 0 0.941007653   0 0 0 0 0.941007653   0 0 0 0 0.941007653  0 0 0 1 0" type="matrix" in="shadowOffsetOuter1"></feColorMatrix>
        </filter>
        <rect id="path-5" x="0" y="0" width="54" height="22" rx="11"></rect>
        <rect id="path-6" x="0" y="0" width="54" height="22" rx="11"></rect>
        <text id="text-7" font-family="HanziPenSC-W3, HanziPen SC" font-size="16" font-weight="normal" line-spacing="38" fill="#FFFFFF">
            <tspan x="45.14" y="150">点击「去程」或「返程」按钮，</tspan>
            <tspan x="24.222" y="188">可 </tspan>
            <tspan x="46.174" y="188" font-size="22">单独 </tspan>
            <tspan x="99.018" y="188">控制出行人的往返行程预订</tspan>
        </text>
        <filter x="-7.5%" y="-25.0%" width="114.9%" height="155.3%" filterUnits="objectBoundingBox" id="filter-8">
            <feOffset dx="0" dy="2" in="SourceAlpha" result="shadowOffsetOuter1"></feOffset>
            <feGaussianBlur stdDeviation="6.5" in="shadowOffsetOuter1" result="shadowBlurOuter1"></feGaussianBlur>
            <feColorMatrix values="0 0 0 0 0   0 0 0 0 0   0 0 0 0 0  0 0 0 0.607733243 0" type="matrix" in="shadowBlurOuter1"></feColorMatrix>
        </filter>
        <path d="M1.51171677,12.5997683 C0.0578914678,19.8960124 1.60014633,27.9651262 7.44970767,34.9868089 C16.2416999,45.5405199 28.5046847,35.6364032 50.9633795,33.191887 C73.4220743,30.7473708 88.8258341,32.5247498 94.8823249,25.4702074 C99.6504371,19.9163559 102.363211,9.90507263 97.2673626,0.0935334795 C106.089875,12.6889802 100.644846,27.7580775 94.8823249,34.4702074 C88.8258341,41.5247498 71.6344761,36.4470854 49.1757812,38.8916016 C26.7170864,41.3361178 18.1289062,48.8154297 7.44970767,41.3496094 C-0.357353551,35.8916983 -1.08858398,22.8029012 1.51171677,12.5997683 Z" id="path-9"></path>
        <text id="text-11" font-family="HanziPenSC-W3, HanziPen SC" font-size="17" font-weight="normal" line-spacing="28" fill="#FFFFFF">
            <tspan x="13.6817744" y="26.9257114">我知道了</tspan>
        </text>
        <filter x="-27.6%" y="-66.1%" width="155.2%" height="246.4%" filterUnits="objectBoundingBox" id="filter-12">
            <feOffset dx="0" dy="2" in="SourceAlpha" result="shadowOffsetOuter1"></feOffset>
            <feGaussianBlur stdDeviation="6.5" in="shadowOffsetOuter1" result="shadowBlurOuter1"></feGaussianBlur>
            <feColorMatrix values="0 0 0 0 0   0 0 0 0 0   0 0 0 0 0  0 0 0 1 0" type="matrix" in="shadowBlurOuter1"></feColorMatrix>
        </filter>
    </defs>
    <g id="火车票" stroke="none" stroke-width="1" fill="none" fill-rule="evenodd">
        <g id="选择去返程-copy-3" transform="translate(-32.000000, -293.000000)">
            <g id="Group-14" transform="translate(32.000000, 293.000000)">
                <path d="M278.191963,116 C277.32616,128.975867 279.389102,136.276578 284.380789,137.902134 C288.818167,139.347177 291.028213,139.046825 288.818167,134.146467 C286.808175,129.68969 281.874939,128.36864 281.167296,132.428257 C280.501269,136.249125 285.347918,138.941904 290.048778,144.126843 C291.575449,145.810725 293.55919,149.101777 296,154" id="Path-6-Copy-2" stroke="#FCFCFC" transform="translate(287.000000, 135.000000) scale(-1, 1) translate(-287.000000, -135.000000) "></path>
                <path id="Path-6-Copy-2-decoration-1" d="M288.498104,145.671642 L296,154 L293.868302,142.995643" stroke="#FCFCFC"></path>
                <g id="Group-13">
                    <g id="Group-22">
                        <mask id="mask-2" fill="white">
                            <use xlink:href="#path-1"></use>
                        </mask>
                        <use id="Mask" fill="#D8D8D8" xlink:href="#path-1"></use>
                        <g mask="url(#mask-2)">
                            <g transform="translate(0.000000, -1.000000)">
                                <rect id="白色背景-copy" stroke="none" fill="#FFFFFF" fill-rule="evenodd" x="0" y="26" width="322.289062" height="116.000003"></rect>
                                <g id="白色背景-copy-2" stroke="none" fill="none">
                                    <use fill="black" fill-opacity="1" filter="url(#filter-4)" xlink:href="#path-3"></use>
                                    <use fill="#FFFFFF" fill-rule="evenodd" xlink:href="#path-3"></use>
                                </g>
                                <g id="Group-Copy-3" opacity="0.699999988" stroke="none" stroke-width="1" fill="none" fill-rule="evenodd" transform="translate(293.199996, 36.599996)">
                                    <rect id="Combined-Shape" fill="#FF7700" x="2.79999995" y="6.29999989" width="7.69999987" height="1" rx="0.5"></rect>
                                    <circle id="Oval-10" stroke="#FF7700" stroke-width="0.699999988" cx="6.64999989" cy="6.64999989" r="6.29999989"></circle>
                                </g>
                                <rect id="Rectangle-2-Copy-7" stroke="none" fill="#F0F0F0" fill-rule="evenodd" x="11" y="39" width="80" height="10"></rect>
                                <rect id="Rectangle-2-Copy-8" stroke="none" fill="#F0F0F0" fill-rule="evenodd" x="11" y="59" width="112" height="10"></rect>
                                <g id="Group-10" stroke="none" stroke-width="1" fill="none" fill-rule="evenodd" transform="translate(26.000000, 117.000000)">
                                    <g id="Group-6" transform="translate(0.000000, 1.400000)">
                                        <text id="添加乘车人" font-family="PingFangSC-Regular, PingFang SC" font-size="10.5" font-weight="normal" line-spacing="10.4999998" fill="#17ABCB">
                                            <tspan x="15.3999997" y="13.1">添加乘车人</tspan>
                                        </text>
                                        <g id="icon/小图标/选择/添加">
                                            <circle id="Oval-7" cx="6.99999988" cy="6.99999988" r="6.99999988"></circle>
                                            <rect id="Rectangle-25" fill="#17ABCB" x="2.79999995" y="6.64999989" width="8.39999986" height="1.39999998"></rect>
                                            <rect id="Rectangle-25" fill="#17ABCB" transform="translate(7.000000, 7.350000) rotate(-270.000000) translate(-7.000000, -7.350000) " x="2.79999995" y="6.64999989" width="8.39999986" height="1.39999998"></rect>
                                        </g>
                                    </g>
                                    <g id="Group-8" transform="translate(121.799998, 1.400000)">
                                        <text id="添加外部乘车人" font-family="PingFangSC-Regular, PingFang SC" font-size="10.5" font-weight="normal" line-spacing="10.4999998" fill="#17ABCB">
                                            <tspan x="15.3999997" y="13.1">添加外部乘车人</tspan>
                                        </text>
                                        <g id="icon/小图标/选择/添加">
                                            <circle id="Oval-7" cx="6.99999988" cy="6.99999988" r="6.99999988"></circle>
                                            <path d="M6.29999989,6.64999989 L6.29999989,3.14999995 L7.69999987,3.14999995 L7.69999987,6.64999989 L11.1999998,6.64999989 L11.1999998,8.04999986 L7.69999987,8.04999986 L7.69999987,11.5499998 L6.29999989,11.5499998 L6.29999989,8.04999986 L2.79999995,8.04999986 L2.79999995,6.64999989 L6.29999989,6.64999989 Z" id="Combined-Shape" fill="#17ABCB"></path>
                                        </g>
                                    </g>
                                    <rect id="Rectangle" fill="#E4E4E4" x="100.099998" y="0" width="1" height="16.7999997"></rect>
                                </g>
                                <g id="Group-3" stroke="none" stroke-width="1" fill="none" fill-rule="evenodd">
                                    <g id="通用/提示条2">
                                        <rect id="Background" fill="#FFFAEB" x="0" y="0" width="322.289062" height="30"></rect>
                                        <text id="Title" font-family="PingFangSC-Regular, PingFang SC" font-size="9.09999985" font-weight="normal" line-spacing="15.3999997"></text>
                                    </g>
                                </g>
                                <polyline id="Path-3" stroke="#8F7E4D" stroke-width="0.840000019" fill="none" opacity="0.400000006" points="303 17.5999999 306 14.8 303 12"></polyline>
                                <circle id="Oval-7" stroke="none" fill="#8F7E4D" fill-rule="evenodd" opacity="0.5" cx="16.8999999" cy="15.8999999" r="4.89999992"></circle>
                                <path d="M16.7906994,12 C17.1644864,12 17.4675006,12.3030142 17.4675006,12.6768012 L17.4675006,16.3992077 C17.4675006,16.7729947 17.1644864,17.0760089 16.7906994,17.0760089 C16.4169124,17.0760089 16.1138982,16.7729947 16.1138982,16.3992077 L16.1138982,12.6768012 C16.1138982,12.3030142 16.4169124,12 16.7906994,12 Z M16.7614013,17.713977 C17.1819116,17.713977 17.5228026,18.054868 17.5228026,18.4753783 C17.5228026,18.8958887 17.1819116,19.2367797 16.7614013,19.2367797 C16.340891,19.2367797 16,18.8958887 16,18.4753783 C16,18.054868 16.340891,17.713977 16.7614013,17.713977 Z" id="Combined-Shape" stroke="none" fill="#FFFFFF" fill-rule="evenodd"></path>
                                <rect id="Rectangle-2-Copy-6" stroke="none" fill="#C7BB9C" fill-rule="evenodd" opacity="0.200000003" x="26" y="11" width="112" height="10"></rect>
                            </g>
                        </g>
                    </g>
                    <g id="Group-9-Copy-2" transform="translate(192.000000, 70.000000)">
                        <g id="Group-21-Copy-2">
                            <g id="Rectangle-31-Copy-6">
                                <use fill="#FFFFFF" fill-rule="evenodd" xlink:href="#path-5"></use>
                                <rect stroke="#17ABCB" stroke-width="1" x="0.5" y="0.5" width="53" height="21" rx="10.5"></rect>
                            </g>
                            <text id="去程" font-family="PingFangSC-Regular, PingFang SC" font-size="12" font-weight="normal" line-spacing="12" fill="#17ABCB">
                                <tspan x="22" y="18">去程</tspan>
                            </text>
                            <polygon id="Rectangle" fill="#17ABCB" points="8 11.5297801 8.64709748 10.8008542 10.787155 12.8879066 16.1185451 8 17 8.77961777 10.787155 15"></polygon>
                        </g>
                        <g id="Group-21-Copy-3" transform="translate(61.000000, 0.000000)">
                            <g id="Rectangle-31-Copy-6">
                                <use fill="#FFFFFF" fill-rule="evenodd" xlink:href="#path-6"></use>
                                <rect stroke="#E4E4E4" stroke-width="1" x="0.5" y="0.5" width="53" height="21" rx="10.5"></rect>
                            </g>
                            <text id="返程" font-family="PingFangSC-Regular, PingFang SC" font-size="12" font-weight="normal" line-spacing="12" fill="#BBBBBB">
                                <tspan x="22" y="18">返程</tspan>
                            </text>
                            <polygon id="Rectangle" fill="#CCCCCC" points="8 11.5297801 8.64709748 10.8008542 10.787155 12.8879066 16.1185451 8 17 8.77961777 10.787155 15"></polygon>
                        </g>
                    </g>
                </g>
                <g id="点击「去程」或「返程」按钮，-可-单独" stroke="#FFFFFF">
                    <use fill="#FFFFFF" fill-opacity="1" stroke-opacity="1" filter="url(#filter-8)" xlink:href="#text-7"></use>
                    <use fill="#FFFFFF" fill-opacity="1" stroke-opacity="1" xlink:href="#text-7"></use>
                    <use xlink:href="#text-7"></use>
                </g>
                <g id="Group-Copy-2" transform="translate(161.000000, 308.000000) rotate(6.000000) translate(-161.000000, -308.000000) translate(110.000000, 280.000000)">
                    <g id="Path-10" transform="translate(0.000000, 11.000000)">
                        <mask id="mask-10" fill="white">
                            <use xlink:href="#path-9"></use>
                        </mask>
                        <use id="Mask" stroke="#FFFFFF" xlink:href="#path-9"></use>
                        <path d="M1.49658203,42.5805664 C0.18343099,40.8158095 -0.473144531,39.4715712 -0.473144531,38.5478516 C-0.473144531,37.6241319 0.353190104,32.5645616 2.00585938,23.3691406 C2.64509023,24.1681567 2.98143463,24.9399313 3.01489258,25.6844644 C3.38867525,34.002177 3.53508419,42.15253 3.97802734,42.5805664 C4.48044344,43.0660743 5.10951245,37.9054297 5.86523438,27.0986328 C7.30801596,28.1997848 8.05720216,29.1382904 8.11279297,29.9141497 C8.16838378,30.6900091 7.89934081,36.4526753 7.30566406,47.2021484 C11.1197917,49.4189453 12.9956055,50.1923828 12.9331055,49.5224609 C12.8706055,48.8525391 12.1822917,40.9065402 10.8681641,25.6844644 C14.7683114,43.3325956 16.988689,52.1031387 17.5292969,51.9960938 C19.5130651,51.6032907 17.7705433,25.8804115 18.7601823,25.6844644 C22.837408,24.8771796 24.9070926,57.9779562 26.7841797,57.6064453 C30.6470626,56.841908 27.1763771,53.10866 29.2333984,52.7021484 C34.9089706,51.5805335 27.8765551,28.1639631 30.7519531,27.5996094 C33.9111151,26.9795614 38.738041,46.4000489 40.2695313,45.6830976 C41.7331536,44.997918 46.6430223,23.0253767 48.199707,22.7275391 C49.4623264,22.4859644 50.4774814,52.0328139 53.6564941,51.1386719 C55.5313663,50.6113377 56.8112471,50.1400686 58.9418945,49.5224609 C66.7134975,47.2697176 55.5902016,21.4224665 57.3417969,21.1044922 C58.4072531,20.9110755 60.8114465,20.2330475 63.8009001,19.3416475 C65.8859893,18.7199123 68.1159647,51.1118539 70.5148262,50.3745506 C72.6355787,49.7227255 74.7790395,49.0617039 76.7685547,48.4550781 C80.9567936,47.1780365 77.4864155,21.3061257 78.6621094,21.1044922 C81.8896383,20.5509654 84.698513,20.0028241 87.0887335,19.4600682 C89.5536695,18.9003465 89.2247332,51.1119402 90.5820313,50.3745506 C91.4868966,49.8829575 92.1653587,48.3191398 92.6174174,45.6830976 L93.6738281,16.5732422 L97.3775006,14.7847478 L95.625,39.3999023 L97.3775006,39.3999023 L99.2690426,2.21875 L107.786133,36.7724609" stroke="#FFFFFF" mask="url(#mask-10)"></path>
                    </g>
                    <path d="M50.9633795,44.191887 C28.5046847,46.6364032 16.2416999,56.5405199 7.44970767,45.9868089 C-1.34228452,35.433098 -0.403807957,22.5131761 5.81298892,13.4077074 C12.0297858,4.3022386 32.7089844,5.95019531 68.5810547,1.0859375 C104.453125,-3.77832031 103.036622,26.9721605 94.8823249,36.4702074 C88.8258341,43.5247498 73.4220743,41.7473708 50.9633795,44.191887 Z" id="Path-8" stroke="#FFFFFF" fill-opacity="0.189999998" fill="#FFFFFF"></path>
                    <g id="我知道了" transform="translate(50.843567, 22.925711) rotate(-7.000000) translate(-50.843567, -22.925711) " fill="#FFFFFF" fill-opacity="1">
                        <use filter="url(#filter-12)" xlink:href="#text-11"></use>
                        <use xlink:href="#text-11"></use>
                    </g>
                </g>
            </g>
        </g>
    </g>
</svg>