<?xml version="1.0" encoding="UTF-8"?>
<svg width="16px" height="16px" viewBox="0 0 16 16" version="1.1" xmlns="http://www.w3.org/2000/svg" xmlns:xlink="http://www.w3.org/1999/xlink">
    <!-- Generator: Sketch 49 (51002) - http://www.bohemiancoding.com/sketch -->
    <title>Shape</title>
    <desc>Created with Sketch.</desc>
    <defs></defs>
    <g id="随处记-copy" stroke="none" stroke-width="1" fill="none" fill-rule="evenodd">
        <g id="6" transform="translate(-329.000000, -237.000000)" fill="#17ABCB" fill-rule="nonzero">
            <g id="编辑-(1)" transform="translate(329.000000, 237.000000)">
                <path d="M13.8665826,16 L2.13343575,16 C0.95522006,16 0,15.0450725 0,13.8665826 L0,2.13343575 C0,0.955256642 0.95522006,0 2.13343575,0 L9.8665597,0 C10.0138092,0 10.1334266,0.119306505 10.1334266,0.266556026 L10.1334266,0.799887531 C10.1334266,0.94742965 10.0138092,1.06673616 9.8665597,1.06673616 L2.66676725,1.06673616 C1.78305062,1.06673616 1.06669959,1.78306891 1.06669959,2.66676725 L1.06669959,13.3332328 C1.06669959,14.2169494 1.78305062,14.9333004 2.66676725,14.9333004 L13.3332328,14.9333004 C14.2169494,14.9333004 14.9332639,14.2169494 14.9332639,13.3332328 L14.9332638,6.1334403 C14.9332638,5.98619076 15.0528629,5.86659168 15.2001125,5.86659168 L15.7334988,5.86659168 C15.8806935,5.86659168 16,5.98620906 16,6.1334403 L16,13.8665825 C15.9999817,15.0450725 15.0447799,16 13.8665826,16 Z M14.8067338,3.30439134 L12.5901091,1.21186436 L13.2631923,0.536074605 C13.7836495,0.0138435077 14.6393866,-9.43689571e-16 15.175132,0.505717653 L15.4521667,0.76711666 C15.9876561,1.27285259 15.9999817,2.10637051 15.4795794,2.62891249 L14.8067338,3.30439134 Z M4.24545703,9.59133545 L6.4618075,11.6839173 L3.20008046,12.7999012 L4.24545703,9.59133545 Z M14.2682819,3.84525724 L6.99996686,11.1433258 L4.78361639,9.05076217 L12.0519497,1.75274852 L14.2682819,3.84525724 Z" id="Shape"></path>
            </g>
        </g>
    </g>
</svg>