<?xml version="1.0" encoding="UTF-8"?>
<svg width="16px" height="16px" viewBox="0 0 16 16" version="1.1" xmlns="http://www.w3.org/2000/svg" xmlns:xlink="http://www.w3.org/1999/xlink">
    <!-- Generator: Sketch 49 (51002) - http://www.bohemiancoding.com/sketch -->
    <title>Shape</title>
    <desc>Created with Sketch.</desc>
    <defs></defs>
    <g id="随处记-copy" stroke="none" stroke-width="1" fill="none" fill-rule="evenodd">
        <g id="10" transform="translate(-132.000000, -161.000000)" fill="#007aff" fill-rule="nonzero">
            <g id="Group-6" transform="translate(119.000000, 159.000000)">
                <g id="Group-7">
                    <path d="M20.999981,18 C16.581717,18 13,14.4180714 13,9.99986706 C13,5.58166267 16.581717,2 20.999981,2 C25.418283,2 29,5.58166267 29,9.99986706 C29,14.4180714 25.418283,18 20.999981,18 Z M20.999981,2.99994541 C17.1339573,2.99994541 14.0000119,6.13390024 14.0000119,9.99986706 C14.0000119,13.8658339 17.1339573,16.9998267 20.999981,16.9998267 C24.8660047,16.9998267 27.9999501,13.8658339 27.9999501,9.99986706 C27.9999501,6.13390022 24.8660047,2.99994541 20.999981,2.99994541 Z M23.9999786,10.4999537 L21.5000249,10.4999537 L21.5000249,12.9999312 C21.5000249,13.275917 21.2761581,13.4998279 21.000019,13.4998279 C20.7238799,13.4998279 20.500051,13.275917 20.500051,12.9999312 L20.500051,10.4999537 L18.0000214,10.4999537 C17.7238822,10.4999537 17.5000154,10.2760808 17.5000154,9.99986706 C17.5000154,9.72384324 17.7239202,9.49997032 18.0000214,9.49997032 L20.500051,9.49997032 L20.500051,6.99987891 C20.500051,6.72389307 20.7239178,6.50009612 21.000019,6.50009612 C21.2761961,6.50009612 21.5000249,6.72385507 21.5000249,6.99987891 L21.5000249,9.49997032 L23.9999786,9.49997032 C24.2761557,9.49997032 24.4999846,9.72384322 24.4999846,9.99986706 C24.4999846,10.2760808 24.2761557,10.4999537 23.9999786,10.4999537 Z" id="Shape"></path>
                </g>
            </g>
        </g>
    </g>
</svg>