<?xml version="1.0" encoding="UTF-8"?>
<svg width="64px" height="64px" viewBox="0 0 64 64" version="1.1" xmlns="http://www.w3.org/2000/svg" xmlns:xlink="http://www.w3.org/1999/xlink">
    <!-- Generator: Sketch 46.2 (44496) - http://www.bohemiancoding.com/sketch -->
    <title>add-people</title>
    <desc>Created with Sketch.</desc>
    <defs></defs>
    <g id="火车票" stroke="none" stroke-width="1" fill="none" fill-rule="evenodd">
        <path d="M8.72044999,25.8995234 L8.72044999,21.0290735 C8.72044999,20.5596314 9.10100797,20.1790734 9.57045002,20.1790734 L13.238872,20.1790734 C13.708314,20.1790734 14.088872,20.5596314 14.088872,21.0290735 L14.088872,25.8995234 L18.959322,25.8995234 C19.428764,25.8995234 19.809322,26.2800814 19.809322,26.7495235 L19.809322,30.4179454 C19.809322,30.8873875 19.428764,31.2679454 18.959322,31.2679454 L14.088872,31.2679454 L14.088872,36.1383954 C14.088872,36.6078374 13.708314,36.9883954 13.238872,36.9883954 L9.57045002,36.9883954 C9.10100797,36.9883954 8.72044999,36.6078374 8.72044999,36.1383954 L8.72044999,31.2679454 L3.85000002,31.2679454 C3.38055797,31.2679454 3,30.8873875 3,30.4179454 L3,26.7495235 C3,26.2800814 3.38055797,25.8995234 3.85000002,25.8995234 L3.85000002,25.8995234 L8.72044999,25.8995234 Z M51.8811661,48.9999073 C53.2092974,48.1956133 54.0969146,46.7369021 54.0969146,45.0708768 C54.0969146,44.5809644 54.0184819,44.0942112 53.8645939,43.6290954 C53.4997959,42.5265182 53.2078011,41.8044712 52.9886095,41.4629543 C51.3743372,38.9477972 49.1146536,36.7808485 46.4313207,35.1476253 C52.2663703,35.7355515 57.39188,38.5976 60.2368972,42.559246 L60.2368972,42.559246 C60.7335109,43.2507734 61.0006359,44.0806885 61.0006359,44.9320612 C61.0006359,47.1786728 59.1793974,48.9999113 56.9327858,48.9999113 L56.9327858,48.9999064 L51.8811661,48.9999073 Z M41.6614406,31.0316265 C42.4010067,31.2666275 43.1866365,31.3931286 44.0008904,31.3931286 C48.3864961,31.3931286 51.9417319,27.7234017 51.9417319,23.1965643 C51.9417319,18.6697268 48.3864961,15 44.0008904,15 C43.5701939,15 43.1475059,15.035393 42.7354073,15.103515 C44.3605923,17.1122052 45.3364331,19.6847193 45.3364331,22.4890206 C45.3364331,25.8659254 43.9213979,28.906723 41.6614406,31.0316265 Z M33.0563141,31.3931286 C28.6707084,31.3931286 25.1154725,27.7234017 25.1154725,23.1965643 C25.1154725,18.6697268 28.6707084,15 33.0563141,15 C37.4419197,15 40.9971556,18.6697268 40.9971556,23.1965643 C40.9971556,27.7234017 37.4419197,31.3931286 33.0563141,31.3931286 Z M49.2923208,42.559246 L49.2923208,42.559246 C49.7889345,43.2507734 50.0560595,44.0806885 50.0560595,44.9320612 C50.0560595,47.1786728 48.234821,48.9999113 45.9882094,48.9999113 L45.9882094,48.9999064 L20.5603725,48.999911 C19.7244364,48.999911 18.9084536,48.7445132 18.2216894,48.2679168 C16.3604965,46.9762978 15.8987656,44.4204388 17.1903846,42.559246 L17.1903846,42.559246 C20.3302326,38.0347983 26.3518508,35.036046 33.2645368,35.036046 C40.0024511,35.036046 46.0910632,38.1015402 49.2923208,42.559246 Z" id="add-people" fill="#007aff"></path>
    </g>
</svg>